<svg width="308" height="36" viewBox="0 0 308 36" fill="none" xmlns="http://www.w3.org/2000/svg">
<path d="M9.59961 0.5H298.4C300.088 0.5 301.324 0.50041 302.3 0.580078C303.269 0.659297 303.938 0.814529 304.497 1.09961C305.532 1.62689 306.373 2.46817 306.9 3.50293C307.185 4.06243 307.341 4.7306 307.42 5.7002C307.5 6.67551 307.5 7.91156 307.5 9.59961V26.4004C307.5 28.0884 307.5 29.3245 307.42 30.2998C307.341 31.2694 307.185 31.9376 306.9 32.4971C306.373 33.5318 305.532 34.3731 304.497 34.9004C303.938 35.1855 303.269 35.3407 302.3 35.4199C301.324 35.4996 300.088 35.5 298.4 35.5H9.59961C7.91156 35.5 6.67551 35.4996 5.7002 35.4199C4.7306 35.3407 4.06243 35.1855 3.50293 34.9004C2.46816 34.3731 1.62689 33.5318 1.09961 32.4971C0.814529 31.9376 0.659297 31.2694 0.580078 30.2998C0.50041 29.3245 0.5 28.0884 0.5 26.4004V9.59961C0.5 7.91155 0.50041 6.67551 0.580078 5.7002C0.659297 4.7306 0.814529 4.06243 1.09961 3.50293C1.62689 2.46816 2.46816 1.62689 3.50293 1.09961C4.06243 0.814529 4.7306 0.659297 5.7002 0.580078C6.67551 0.50041 7.91156 0.5 9.59961 0.5Z" fill="white"/>
<path d="M9.59961 0.5H298.4C300.088 0.5 301.324 0.50041 302.3 0.580078C303.269 0.659297 303.938 0.814529 304.497 1.09961C305.532 1.62689 306.373 2.46817 306.9 3.50293C307.185 4.06243 307.341 4.7306 307.42 5.7002C307.5 6.67551 307.5 7.91156 307.5 9.59961V26.4004C307.5 28.0884 307.5 29.3245 307.42 30.2998C307.341 31.2694 307.185 31.9376 306.9 32.4971C306.373 33.5318 305.532 34.3731 304.497 34.9004C303.938 35.1855 303.269 35.3407 302.3 35.4199C301.324 35.4996 300.088 35.5 298.4 35.5H9.59961C7.91156 35.5 6.67551 35.4996 5.7002 35.4199C4.7306 35.3407 4.06243 35.1855 3.50293 34.9004C2.46816 34.3731 1.62689 33.5318 1.09961 32.4971C0.814529 31.9376 0.659297 31.2694 0.580078 30.2998C0.50041 29.3245 0.5 28.0884 0.5 26.4004V9.59961C0.5 7.91155 0.50041 6.67551 0.580078 5.7002C0.659297 4.7306 0.814529 4.06243 1.09961 3.50293C1.62689 2.46816 2.46816 1.62689 3.50293 1.09961C4.06243 0.814529 4.7306 0.659297 5.7002 0.580078C6.67551 0.50041 7.91156 0.5 9.59961 0.5Z" stroke="#E0E5F0"/>
<path d="M27.6211 18.3516V19.377H16.4238V18.3516H21.373V17.2852H17.8867V12.2402H26.2539V13.2656H19.1992V14.2637H25.9395V15.2344H19.1992V16.2734H26.3359V17.2852H22.6719V18.3516H27.6211ZM17.7773 22.166C17.7773 20.8809 19.3018 20.1768 22.0293 20.1836C24.7158 20.1768 26.2471 20.8809 26.2539 22.166C26.2471 23.458 24.7158 24.1416 22.0293 24.1348C19.3018 24.1416 17.7773 23.458 17.7773 22.166ZM19.0762 22.166C19.0693 22.8291 20.0947 23.1641 22.0293 23.1504C23.9365 23.1641 24.9551 22.8291 24.9551 22.166C24.9551 21.5029 23.9365 21.1543 22.0293 21.1543C20.0947 21.1543 19.0693 21.5029 19.0762 22.166ZM38.1758 11.9121V14.9883H39.9531V16.082H38.1758V19.0488H36.877V11.9121H38.1758ZM28.5645 14.1543V13.1152H31.5723V11.8027H32.8711V13.1152H35.8652V14.1543H28.5645ZM29.2344 16.8066C29.2275 15.501 30.4307 14.6533 32.2148 14.6602C33.9785 14.6533 35.1816 15.501 35.1816 16.8066C35.1816 18.1123 33.9785 18.9668 32.2148 18.9531C30.4307 18.9668 29.2275 18.1123 29.2344 16.8066ZM30.3418 24.0117V19.5547H31.627V20.7441H36.877V19.5547H38.1758V24.0117H30.3418ZM30.4922 16.8066C30.4785 17.5381 31.1758 17.9893 32.2148 17.9961C33.2539 17.9893 33.9512 17.5381 33.9648 16.8066C33.9512 16.0889 33.2539 15.624 32.2148 15.6309C31.1758 15.624 30.4785 16.0889 30.4922 16.8066ZM31.627 22.9727H36.877V21.7559H31.627V22.9727ZM50.3984 12.6777C50.3984 15.7949 48.2588 18.0029 44.7109 19.0078L44.1777 17.9961C47.0078 17.2031 48.7578 15.6787 49.0107 13.7441H44.8203V12.6777H50.3984ZM46.2695 23.998V19.3633H54.2812V23.998H46.2695ZM47.541 22.959H52.9961V20.4023H47.541V22.959ZM50.4531 16.0684V14.9883H52.9824V11.9258H54.2812V18.8574H52.9824V16.0684H50.4531ZM59.9141 14.2227C59.9141 15.6035 60.7617 16.9775 62.3477 17.5996L61.6504 18.5977C60.5293 18.1465 59.7295 17.2988 59.292 16.2666C58.8408 17.415 58.0068 18.3994 56.8242 18.9121L56.1133 17.9141C57.7676 17.1895 58.6562 15.6104 58.6562 14.2227V12.6504H59.9141V14.2227ZM58.2871 21.0176V19.9648H66.6133V24.1621H65.3281V21.0176H58.2871ZM62.7441 19.2539V12.1309H63.9473V15.043H65.3828V11.9258H66.6133V19.3223H65.3828V16.123H63.9473V19.2539H62.7441Z" fill="#111111" fill-opacity="0.5"/>
<path d="M289.5 25.5L285.884 21.8833" stroke="#686D79" stroke-width="1.6" stroke-linecap="round" stroke-linejoin="round"/>
<path d="M281.167 23.8333C284.849 23.8333 287.833 20.8486 287.833 17.1667C287.833 13.4848 284.849 10.5 281.167 10.5C277.485 10.5 274.5 13.4848 274.5 17.1667C274.5 20.8486 277.485 23.8333 281.167 23.8333Z" stroke="#686D79" stroke-width="1.6" stroke-linecap="round" stroke-linejoin="round"/>
</svg>
