<svg width="18" height="18" viewBox="0 0 18 18" fill="none" xmlns="http://www.w3.org/2000/svg">
<path fill-rule="evenodd" clip-rule="evenodd" d="M8.08015 1.14607C8.42654 0.338569 9.57142 0.338792 9.91804 1.14607L11.8399 5.63337C11.941 5.86937 12.1294 6.05755 12.3653 6.15876L16.8526 8.08064C17.6605 8.427 17.6605 9.57217 16.8526 9.91853L12.3653 11.8404C12.1293 11.9416 11.9411 12.1298 11.8399 12.3658L9.91804 16.8531L9.8448 16.9947C9.45989 17.614 8.5383 17.614 8.15339 16.9947L8.08015 16.8531L6.15827 12.3658C6.06969 12.1593 5.91437 11.9893 5.71882 11.8824L5.63288 11.8404L1.14558 9.91853C0.338303 9.57191 0.338082 8.42703 1.14558 8.08064L5.63288 6.15876C5.86907 6.05761 6.05712 5.86956 6.15827 5.63337L8.08015 1.14607ZM7.53718 6.22419C7.2843 6.8145 6.81401 7.28478 6.2237 7.53767L2.80964 8.99958L6.2237 10.4615C6.81382 10.7143 7.28424 11.1849 7.53718 11.775L8.99909 15.1881L10.461 11.775L10.5655 11.5601C10.833 11.071 11.2579 10.6829 11.7745 10.4615L15.1876 8.99958L11.7745 7.53767C11.1844 7.28473 10.7138 6.81431 10.461 6.22419L8.99909 2.81013L7.53718 6.22419Z" fill="#373F4F"/>
</svg>
