<svg width="82" height="40" viewBox="0 0 82 40" fill="none" xmlns="http://www.w3.org/2000/svg">
<path d="M37.3889 22.602H53.7106L52.4882 35H48.6056L49.5386 25.9152H37.1025L37.3889 22.602Z" fill="url(#paint0_linear_2130_13654)"/>
<path d="M55.485 5.00195L53.8227 20.7073H49.8516L51.5138 5.00195H55.485Z" fill="url(#paint1_linear_2130_13654)"/>
<path d="M68.4768 9.05155H60.2422L60.5197 5.85773H68.7544L68.4768 9.05155Z" fill="url(#paint2_linear_2130_13654)"/>
<path d="M70.4031 13.6362L70.6747 10.5308H57.5861L57.3145 13.6362H60.078L60.0574 13.8737C58.8822 14.5239 58.2297 15.5986 58.0998 17.0979C58.029 17.9262 58.1973 18.6803 58.6077 19.3602C59.0181 20.0401 59.6381 20.5834 60.4648 20.9872C61.2915 21.3909 62.254 21.5928 63.3524 21.5928C64.4507 21.5928 65.4487 21.3909 66.3463 20.9872C67.2438 20.5834 67.9584 20.0401 68.4869 19.3602C69.0183 18.6803 69.3165 17.9262 69.3903 17.0979C69.5202 15.5986 69.0537 14.5239 67.9938 13.8737L68.0145 13.6362H70.3972H70.4031ZM65.9624 16.0024L65.9211 16.4745C65.865 17.1068 65.6288 17.5878 65.2066 17.9233C64.7844 18.2588 64.2618 18.425 63.6329 18.425C63.004 18.425 62.5109 18.2588 62.1478 17.9233C61.7846 17.5878 61.6311 17.1068 61.6842 16.4745L61.7255 16.0024C61.7816 15.373 62.0178 14.8831 62.4401 14.5388C62.8623 14.1944 63.3878 14.0222 64.0138 14.0222C64.6397 14.0222 65.1357 14.1944 65.4989 14.5388C65.8621 14.8831 66.0156 15.373 65.9595 16.0024H65.9624Z" fill="url(#paint3_linear_2130_13654)"/>
<path d="M76.201 24.2079C75.1068 23.0797 73.5132 22.5157 71.4201 22.5157C70.0287 22.5157 68.8216 22.771 67.7988 23.2846C66.7731 23.7982 65.9733 24.5256 65.3965 25.4697C64.8197 26.4138 64.4927 27.5152 64.4213 28.7651C64.35 30.018 64.5492 31.1106 65.0189 32.0458C65.4887 32.978 66.2052 33.7024 67.1715 34.216C68.1378 34.7296 69.3151 34.985 70.7036 34.985C72.0921 34.985 73.3021 34.7296 74.3249 34.216C75.3477 33.7024 76.1445 32.981 76.7153 32.0458C77.2862 31.1106 77.6043 30.018 77.6786 28.7651C77.7886 26.8532 77.2951 25.3331 76.201 24.2049V24.2079ZM74.5479 28.2664L74.5241 28.6761C74.4825 29.4035 74.1584 30.0032 73.5578 30.4693C72.9543 30.9354 72.0713 31.1699 70.9028 31.1699C69.7344 31.1699 68.8573 30.9354 68.3072 30.4693C67.7572 30.0032 67.5045 29.4035 67.5461 28.6761L67.5699 28.2664C67.6115 27.539 67.9326 26.9333 68.5362 26.4554C69.1397 25.9774 70.0317 25.7369 71.212 25.7369C72.3924 25.7369 73.2546 25.9714 73.7957 26.4375C74.3368 26.9037 74.5865 27.5123 74.5419 28.2664H74.5479Z" fill="url(#paint4_linear_2130_13654)"/>
<path d="M81.3297 5L79.883 21.6525H76.1185L76.6854 15.115H74.8932L74.3854 20.9399H70.6504L72.0027 5.38299H75.7376L75.1737 11.8611H76.9688L77.5652 5H81.3297Z" fill="url(#paint5_linear_2130_13654)"/>
<path d="M33.6691 6.56976H48.7624L48.479 9.82366H44.0384L35.476 20.7491H30.752L39.6568 9.82366H33.3886L33.6691 6.56976Z" fill="url(#paint6_linear_2130_13654)"/>
<path d="M39.6084 13.0298L43.7597 20.1551H48.7613L44.3177 13.0298H39.6084Z" fill="url(#paint7_linear_2130_13654)"/>
<path fill-rule="evenodd" clip-rule="evenodd" d="M25.9671 19.416C25.8311 20.2461 25.1182 20.924 23.6924 22.2799L15.5351 30.0376C14.2665 31.244 13.6323 31.8472 12.8687 31.9764C12.6212 32.0183 12.3689 32.0233 12.12 31.9913C11.3518 31.8925 10.6938 31.3149 9.37774 30.1598L1.18741 22.9711C0.372664 22.256 -0.0347082 21.8984 0.00231616 21.5734C0.0137495 21.473 0.0493654 21.3769 0.106144 21.2931C0.290009 21.0218 0.833384 21.0122 1.92014 20.993L12.6208 20.8039C12.8347 20.8002 12.9417 20.7983 13.0095 20.8544C13.0312 20.8723 13.0495 20.894 13.0637 20.9183C13.1078 20.9945 13.0883 21.0996 13.0492 21.31L12.6733 23.3361C12.5116 24.2077 12.4307 24.6435 12.6784 24.8194C12.926 24.9952 13.3108 24.7753 14.0805 24.3355L21.7103 19.9756C22.4588 19.5479 22.833 19.3341 22.833 19.0121C22.833 18.6901 22.4588 18.4762 21.7103 18.0485L14.0805 13.6886C13.3108 13.2488 12.926 13.0289 12.6784 13.2048C12.4307 13.3807 12.5116 13.8165 12.6733 14.6881L13.0488 16.712C13.0879 16.9223 13.1074 17.0275 13.0633 17.1036C13.0492 17.128 13.0308 17.1496 13.0091 17.1676C12.9414 17.2237 12.8344 17.2218 12.6206 17.2181L1.92121 17.0331C0.834109 17.0143 0.290561 17.0049 0.106598 16.7336C0.0497909 16.6498 0.0141466 16.5537 0.00268892 16.4533C-0.0344148 16.1282 0.373036 15.7705 1.18794 15.0551L9.37769 7.86489C10.6937 6.70948 11.3518 6.13177 12.12 6.03289C12.3689 6.00085 12.6213 6.00584 12.8688 6.04771C13.6324 6.1769 14.2668 6.78019 15.5355 7.98675L23.6924 15.744C25.1182 17.0999 25.8311 17.7779 25.9671 18.6079C26.011 18.8755 26.011 19.1484 25.9671 19.416Z" fill="url(#paint8_linear_2130_13654)"/>
<defs>
<linearGradient id="paint0_linear_2130_13654" x1="45.4066" y1="22.602" x2="45.4066" y2="35" gradientUnits="userSpaceOnUse">
<stop stop-color="#6F00B6"/>
<stop offset="1" stop-color="#6F00B6"/>
</linearGradient>
<linearGradient id="paint1_linear_2130_13654" x1="52.6683" y1="5.00195" x2="52.6683" y2="20.7073" gradientUnits="userSpaceOnUse">
<stop stop-color="#6F00B6"/>
<stop offset="1" stop-color="#6F00B6"/>
</linearGradient>
<linearGradient id="paint2_linear_2130_13654" x1="64.4983" y1="5.85773" x2="64.4983" y2="9.05155" gradientUnits="userSpaceOnUse">
<stop stop-color="#6F00B6"/>
<stop offset="1" stop-color="#6F00B6"/>
</linearGradient>
<linearGradient id="paint3_linear_2130_13654" x1="63.9946" y1="10.5308" x2="63.9946" y2="21.5928" gradientUnits="userSpaceOnUse">
<stop stop-color="#6F00B6"/>
<stop offset="1" stop-color="#6F00B6"/>
</linearGradient>
<linearGradient id="paint4_linear_2130_13654" x1="71.0504" y1="22.5157" x2="71.0504" y2="34.985" gradientUnits="userSpaceOnUse">
<stop stop-color="#6F00B6"/>
<stop offset="1" stop-color="#6F00B6"/>
</linearGradient>
<linearGradient id="paint5_linear_2130_13654" x1="75.9901" y1="5" x2="75.9901" y2="21.6525" gradientUnits="userSpaceOnUse">
<stop stop-color="#6F00B6"/>
<stop offset="1" stop-color="#6F00B6"/>
</linearGradient>
<linearGradient id="paint6_linear_2130_13654" x1="39.7572" y1="6.56976" x2="39.7572" y2="20.7491" gradientUnits="userSpaceOnUse">
<stop stop-color="#6F00B6"/>
<stop offset="1" stop-color="#6F00B6"/>
</linearGradient>
<linearGradient id="paint7_linear_2130_13654" x1="44.1848" y1="13.0298" x2="44.1848" y2="20.1551" gradientUnits="userSpaceOnUse">
<stop stop-color="#6F00B6"/>
<stop offset="1" stop-color="#6F00B6"/>
</linearGradient>
<linearGradient id="paint8_linear_2130_13654" x1="13" y1="6.01208" x2="13" y2="32.0121" gradientUnits="userSpaceOnUse">
<stop stop-color="#6F00B6"/>
<stop offset="1" stop-color="#6F00B6"/>
</linearGradient>
</defs>
</svg>
