<svg width="24" height="25" viewBox="0 0 24 25" fill="none" xmlns="http://www.w3.org/2000/svg">
<path fill-rule="evenodd" clip-rule="evenodd" d="M11.0801 4.39607C11.4265 3.58857 12.5714 3.58879 12.918 4.39607L14.8399 8.88337C14.941 9.11937 15.1294 9.30755 15.3653 9.40876L19.8526 11.3306C20.6605 11.677 20.6605 12.8222 19.8526 13.1685L15.3653 15.0904C15.1293 15.1916 14.9411 15.3798 14.8399 15.6158L12.918 20.1031L12.8448 20.2447C12.4599 20.864 11.5383 20.864 11.1534 20.2447L11.0801 20.1031L9.15827 15.6158C9.06969 15.4093 8.91437 15.2393 8.71882 15.1324L8.63288 15.0904L4.14558 13.1685C3.3383 12.8219 3.33808 11.677 4.14558 11.3306L8.63288 9.40876C8.86907 9.30761 9.05712 9.11956 9.15827 8.88337L11.0801 4.39607ZM10.5372 9.47419C10.2843 10.0645 9.81401 10.5348 9.2237 10.7877L5.80964 12.2496L9.2237 13.7115C9.81382 13.9643 10.2842 14.4349 10.5372 15.025L11.9991 18.4381L13.461 15.025L13.5655 14.8101C13.833 14.321 14.2579 13.9329 14.7745 13.7115L18.1876 12.2496L14.7745 10.7877C14.1844 10.5347 13.7138 10.0643 13.461 9.47419L11.9991 6.06013L10.5372 9.47419Z" fill="white"/>
</svg>
