<svg width="432" height="204" viewBox="0 0 432 204" fill="none" xmlns="http://www.w3.org/2000/svg">
<g clip-path="url(#clip0_2808_37339)">
<path d="M0 12C0 5.37258 5.37258 0 12 0H420C426.627 0 432 5.37258 432 12V192C432 198.627 426.627 204 420 204H12C5.37259 204 0 198.627 0 192V12Z" fill="url(#paint0_linear_2808_37339)"/>
<path d="M41.8125 34.9062C47.9375 34.9062 52.5 38 52.5312 42.6875C52.5 46.9688 48.8906 49.8594 43.7812 50.4375V55.2812H54.875V58.5625H28.8438V55.2812H39.8125V50.4062C34.7188 49.8594 31.125 46.9531 31.125 42.6875C31.125 38 35.6875 34.9062 41.8125 34.9062ZM41.8125 38.0938C37.8438 38.0938 35.0625 39.8438 35.0625 42.6875C35.0625 45.6875 37.8438 47.375 41.8125 47.375C45.8125 47.375 48.5625 45.6875 48.5938 42.6875C48.5625 39.8438 45.8125 38.0938 41.8125 38.0938ZM79.5 39.1875V42.3438H59.7188V33.7812H63.6875V39.1875H79.5ZM82.5 44.25V47.4062H56.4688V44.25H82.5ZM79.375 49.125V56.6875H63.5V58.5H80.25V61.5625H59.5V53.8125H75.4062V52.1875H59.4375V49.125H79.375ZM110.094 47.9688V51.1562H84.1562V47.9688H110.094ZM107.156 58.1875V61.375H87.2812V53.0625H91.2812V58.1875H107.156ZM97.125 34.3125C103.344 34.2812 107.438 36.5 107.469 40.125C107.438 43.75 103.344 46 97.125 46C90.8438 46 86.75 43.75 86.75 40.125C86.75 36.5 90.8438 34.2812 97.125 34.3125ZM97.125 37.4375C93.1875 37.4688 90.875 38.4062 90.9062 40.125C90.875 41.9062 93.1875 42.7812 97.125 42.7812C101.062 42.7812 103.344 41.9062 103.344 40.125C103.344 38.4062 101.062 37.4688 97.125 37.4375ZM133.969 34.9375V36.9375H139.188V33.4375H143.156V49.5H139.188V45.375H133.969V47.4062H120.344V34.9375H133.969ZM124.281 38.0312V44.3438H130V38.0312H124.281ZM143.562 51.0938V54.0312H135.625C136 55.9844 139.031 58.2656 144.688 58.8125L143.406 61.75C138.641 61.3125 135.266 59.6094 133.531 57.375C131.781 59.6562 128.375 61.3281 123.625 61.75L122.344 58.8125C128.062 58.3438 131.062 56.1094 131.469 54.0312H123.438V51.0938H131.5V48.7812H135.562V51.0938H143.562ZM133.969 42.3125H139.188V39.9375H133.969V42.3125ZM177.156 34.75V37.2188C177.156 39.5938 177.156 42.1562 176.562 45.5H180.25V48.6562H169.375V54.7188H165.406V48.6562H154.219V45.5H172.531C173.125 42.4688 173.188 40.125 173.188 37.9375H157.406V34.75H177.156ZM177.594 58.1875V61.375H157.25V52.1562H161.219V58.1875H177.594ZM206.531 33.4375V61.875H202.688V33.4375H206.531ZM200.5 33.9375V60.5938H196.781V47.0625H191.688V43.8125H196.781V33.9375H200.5ZM193.625 36.6562V39.8438H186.656V52.2188C189.703 52.2031 192 52.0469 194.656 51.5L194.969 54.75C191.75 55.4062 188.875 55.5312 184.719 55.5312H182.75V36.6562H193.625ZM39.875 81.1875C39.875 85.7812 42.2188 90.6875 47 92.6875L44.8438 95.8125C41.4844 94.3906 39.1719 91.5625 37.9062 88.0938C36.6094 91.8594 34.25 94.9844 30.9062 96.5312L28.625 93.375C33.3438 91.2812 35.7812 86 35.7812 81.1875V79.4375H29.75V76.1875H45.8125V79.4375H39.875V81.1875ZM52.6562 73.4375V101.875H48.625V73.4375H52.6562ZM80.5938 73.4688V94.9375H76.5938V92.6875H71.1562V89.9688H76.5938V73.4688H80.5938ZM81.2188 98.1875V101.375H60.0312V92.875H64V89.0938C61.4531 89.2031 59.0312 89.2188 56.875 89.2188L56.4062 86.0625C61.625 86.0312 68.6562 85.9688 74.6562 85.2188L74.875 88.0625C72.625 88.4375 70.2969 88.7031 68 88.875V94.2812H64V98.1875H81.2188ZM65.6562 74.4375C69.7812 74.4062 72.75 76.5 72.75 79.5312C72.75 82.5625 69.7812 84.5312 65.6562 84.5312C61.4375 84.5312 58.5 82.5625 58.5 79.5312C58.5 76.5 61.4062 74.4062 65.6562 74.4375ZM65.6562 77.3438C63.625 77.3438 62.25 78.125 62.2812 79.5312C62.25 80.9062 63.625 81.6562 65.6562 81.6562C67.5625 81.6562 68.9375 80.9062 68.9688 79.5312C68.9375 78.125 67.5625 77.3438 65.6562 77.3438ZM106.719 73.375V79.5625H110.562V82.75H106.719V88.7812H102.719V73.375H106.719ZM106.719 89.9375V97.125H91.8125V98.75H107.531V101.688H87.9062V94.4062H102.75V92.8125H87.8438V89.9375H106.719ZM101.031 75.5625V78.5938H84.1562V75.5625H90.625V73.25H94.5938V75.5625H101.031ZM92.5938 79.2812C96.8438 79.2812 99.5938 81.0938 99.5938 83.9375C99.5938 86.8438 96.8438 88.5938 92.5938 88.5938C88.3438 88.5938 85.5312 86.8438 85.5312 83.9375C85.5312 81.0938 88.3438 79.2812 92.5938 79.2812ZM92.5938 82.0938C90.625 82.0938 89.4062 82.75 89.4375 83.9375C89.4062 85.1562 90.625 85.75 92.5938 85.75C94.5625 85.75 95.8125 85.1562 95.8125 83.9375C95.8125 82.75 94.5625 82.0938 92.5938 82.0938ZM134.594 73.4375V84.5938H138.375V87.875H134.594V101.875H130.594V73.4375H134.594ZM120.312 76.3438C120.281 84.1562 119.469 90.25 114.375 95.8438L111.25 93.625C115.125 89.4375 116.25 85.2656 116.5 79.5938H112.5V76.3438H120.312ZM128.188 76.3438C128.188 84.4688 127.469 91.5 122.438 97.6875L119.281 95.4688C123.141 90.7188 124.188 85.8438 124.438 79.5938H121.25V76.3438H128.188ZM165.5 95.2812V98.5625H139.469V95.2812H145.281V88.3125C143.078 87 141.75 84.9844 141.75 82.4688C141.75 77.875 146.25 74.8125 152.438 74.8125C158.594 74.8125 163.125 77.875 163.156 82.4688C163.141 84.9219 161.844 86.9219 159.719 88.25V95.2812H165.5ZM152.438 77.9688C148.375 77.9688 145.688 79.5938 145.688 82.4688C145.688 85.25 148.375 86.9688 152.438 86.9688C156.469 86.9688 159.188 85.25 159.219 82.4688C159.188 79.5938 156.469 77.9688 152.438 77.9688ZM149.219 95.2812H155.688V89.75C154.672 89.9531 153.578 90.0625 152.438 90.0625C151.297 90.0625 150.219 89.9688 149.219 89.75V95.2812ZM172.094 91.875C172.125 88 173.156 86.7812 175.031 85.625C176.375 84.75 177.406 83.7812 177.406 82.3438C177.406 80.7812 176.188 79.75 174.688 79.75C173.219 79.75 171.875 80.7188 171.812 82.5625H167.375C167.469 78.1562 170.719 76.0625 174.719 76.0625C179.062 76.0625 182.156 78.3438 182.156 82.1875C182.156 84.75 180.844 86.4062 178.781 87.625C177.031 88.6875 176.25 89.6875 176.219 91.875V92.2188H172.094V91.875ZM174.25 99.2812C172.781 99.2812 171.594 98.0938 171.625 96.6562C171.594 95.2188 172.781 94.0625 174.25 94.0625C175.625 94.0625 176.844 95.2188 176.844 96.6562C176.844 98.0938 175.625 99.2812 174.25 99.2812Z" fill="white"/>
<path d="M38.9375 123.912V136.162H37.6934V129.805H36.1758V135.574H34.959V124.24H36.1758V128.752H37.6934V123.912H38.9375ZM33.7422 125.471C33.7285 128.697 32.6621 131.582 29.1621 133.564L28.4102 132.662C31.1309 131.124 32.2793 129.039 32.4844 126.537H28.9297V125.471H33.7422ZM46.8262 124.992C46.8125 126.619 48.8086 128.15 51.2148 128.465L50.709 129.531C48.7061 129.21 46.9424 128.171 46.1562 126.729C45.3496 128.178 43.5928 129.21 41.6035 129.531L41.084 128.465C43.4902 128.15 45.459 126.633 45.4727 124.992V124.322H46.8262V124.992ZM51.7207 130.734V131.801H46.7441V136.162H45.4727V131.801H40.5508V130.734H51.7207ZM58.8574 124.992V130.707H53.1289V124.992H58.8574ZM54.4004 126.045V129.682H57.5859V126.045H54.4004ZM62.2754 123.898V127.562H64.0527V128.656H62.2754V132.881H60.9766V123.898H62.2754ZM62.7949 134.85V135.902H54.5098V132.02H55.8086V134.85H62.7949ZM78.3809 123.912V131.199H77.082V128.096H74.7988V127.029H77.082V123.912H78.3809ZM74.2793 131.541C76.8496 131.541 78.4219 132.389 78.4219 133.852C78.4219 135.314 76.8496 136.148 74.2793 136.162C71.709 136.148 70.123 135.314 70.1367 133.852C70.123 132.389 71.709 131.541 74.2793 131.541ZM74.2793 132.553C72.4883 132.553 71.4219 133.018 71.4219 133.852C71.4219 134.672 72.4883 135.15 74.2793 135.137C76.0703 135.15 77.1367 134.672 77.1367 133.852C77.1367 133.018 76.0703 132.553 74.2793 132.553ZM72.5566 126.072C72.5566 127.631 73.6641 129.135 75.5098 129.764L74.8398 130.789C73.4658 130.311 72.4541 129.333 71.9277 128.123C71.3877 129.497 70.3145 130.598 68.8516 131.131L68.168 130.092C70.0684 129.436 71.2305 127.781 71.2305 126.086V125.812H68.5781V124.76H75.1816V125.812H72.5566V126.072ZM89.8105 123.912V128.875H91.7793V129.955H89.8105V136.162H88.5254V123.912H89.8105ZM87.459 125.826V126.893H80.1992V125.826H83.2207V124.076H84.5195V125.826H87.459ZM83.877 127.795C85.627 127.795 86.9121 128.971 86.9258 130.639C86.9121 132.32 85.627 133.482 83.877 133.496C82.1133 133.482 80.8281 132.32 80.8281 130.639C80.8281 128.971 82.1133 127.795 83.877 127.795ZM83.877 128.861C82.8379 128.861 82.0586 129.586 82.0723 130.639C82.0586 131.705 82.8379 132.416 83.877 132.402C84.916 132.416 85.6816 131.705 85.6816 130.639C85.6816 129.586 84.916 128.861 83.877 128.861ZM98.6152 124.951V125.99H101.281V123.926H102.58V132.854H101.281V129.682H98.6152V130.748H92.9277V124.951H98.6152ZM94.2129 126.004V129.723H97.3438V126.004H94.2129ZM102.854 134.85V135.902H94.582V132.033H95.8945V134.85H102.854ZM98.6152 128.615H101.281V127.057H98.6152V128.615ZM37.9941 143.912V148.656H39.9629V149.75H37.9941V156.162H36.6953V143.912H37.9941ZM30.2012 144.938V148.082H33.4414V144.938H34.7266V153.25H28.916V144.938H30.2012ZM30.2012 152.184H33.4414V149.107H30.2012V152.184ZM51.7617 153.605V154.699H40.5508V153.605H45.4863V151.459H41.918V147.562H49.1094V145.84H41.8906V144.773H50.3945V148.602H43.2031V150.393H50.6816V151.459H46.7715V153.605H51.7617ZM66.2402 143.912V156.189H64.9414V143.912H66.2402ZM62.4941 145.02V149.49H58.0918V152.17C60.0742 152.163 61.8105 152.074 63.8613 151.732L63.9844 152.799C61.8105 153.168 59.9648 153.25 57.8047 153.25H56.7656V148.451H61.168V146.072H56.752V145.02H62.4941ZM74.3887 145.648C74.3887 147.645 76.5215 149.531 78.873 149.955L78.2715 151.035C76.3164 150.611 74.5117 149.326 73.7188 147.604C72.9121 149.312 71.1143 150.598 69.1523 151.035L68.5781 149.955C70.9023 149.518 73.0215 147.645 73.0215 145.648V144.719H74.3887V145.648ZM79.3789 153.469V154.549H68.168V153.469H79.3789ZM90.207 150.434V151.473H81.6758V144.924H90.084V145.977H82.9883V147.631H89.8242V148.656H82.9883V150.434H90.207ZM91.4785 153.551V154.617H80.2676V153.551H91.4785ZM103.564 149.531V150.529H92.3535V149.531H103.564ZM102.184 151.391V154.084H94.9922V155.096H102.566V156.012H93.6934V153.223H100.898V152.32H93.6797V151.391H102.184ZM102.156 144.227V146.879H95.0742V147.809H102.361V148.725H93.7891V146.018H100.857V145.143H93.7617V144.227H102.156ZM114.092 144.992V150.707H108.363V144.992H114.092ZM109.635 146.045V149.682H112.82V146.045H109.635ZM117.51 143.898V147.562H119.287V148.656H117.51V152.881H116.211V143.898H117.51ZM118.029 154.85V155.902H109.744V152.02H111.043V154.85H118.029ZM131.168 148.93V149.969H119.984V148.93H131.168ZM129.842 147.002V148.041H121.447V144.268H129.719V145.32H122.746V147.002H129.842ZM129.746 150.939V153.906H122.609V155H130.088V156.025H121.338V152.949H128.461V151.938H121.324V150.939H129.746ZM135.406 144.828C137.067 144.828 138.284 146.236 138.482 148.506H141.012V143.912H142.297V156.189H141.012V149.559H138.496C138.353 151.944 137.108 153.428 135.406 153.428C133.574 153.428 132.289 151.76 132.303 149.121C132.289 146.496 133.574 144.828 135.406 144.828ZM135.406 145.99C134.299 145.99 133.533 147.193 133.533 149.121C133.533 151.062 134.299 152.266 135.406 152.266C136.514 152.266 137.279 151.062 137.279 149.121C137.279 147.193 136.514 145.99 135.406 145.99ZM154.109 149.723V150.789H145.578V145.006H154V146.072H146.863V149.723H154.109ZM155.395 153.469V154.549H144.184V153.469H155.395ZM166.482 143.912V156.189H165.197V151.062H162.805V149.982H165.197V147.713H162.873V146.646H165.197V143.912H166.482ZM162.135 144.992V149.463H158.033V152.279C159.77 152.272 161.219 152.19 162.969 151.938L163.078 153.004C161.164 153.305 159.605 153.359 157.664 153.359H156.734V148.438H160.863V146.045H156.707V144.992H162.135ZM179.594 153.551V154.631H168.383V153.551H171.062V150.352C170.058 149.798 169.449 148.916 169.449 147.822C169.449 145.895 171.336 144.623 173.961 144.623C176.6 144.623 178.486 145.895 178.486 147.822C178.486 148.902 177.898 149.771 176.914 150.324V153.551H179.594ZM173.961 145.662C172.033 145.662 170.707 146.496 170.707 147.822C170.707 149.135 172.033 149.996 173.961 149.996C175.875 149.996 177.229 149.135 177.229 147.822C177.229 146.496 175.875 145.662 173.961 145.662ZM172.348 153.551H175.602V150.816C175.103 150.946 174.549 151.008 173.961 151.008C173.387 151.008 172.84 150.946 172.348 150.83V153.551ZM181.877 155.096C181.344 155.096 180.893 154.658 180.906 154.125C180.893 153.592 181.344 153.154 181.877 153.154C182.396 153.154 182.848 153.592 182.848 154.125C182.848 154.658 182.396 155.096 181.877 155.096Z" fill="white"/>
<mask id="mask0_2808_37339" style="mask-type:alpha" maskUnits="userSpaceOnUse" x="0" y="0" width="432" height="204">
<path d="M0 12C0 5.37258 5.37258 0 12 0H420C426.627 0 432 5.37258 432 12V192C432 198.627 426.627 204 420 204H12C5.37259 204 0 198.627 0 192V12Z" fill="url(#paint1_linear_2808_37339)"/>
</mask>
<g mask="url(#mask0_2808_37339)">
<g style="mix-blend-mode:screen" opacity="0.37">
<rect width="150.111" height="150.111" transform="matrix(0.866025 0.5 -0.866025 0.5 371 87.0898)" fill="url(#paint2_linear_2808_37339)"/>
<rect width="150.111" height="150.111" transform="matrix(0.866025 0.5 -0.866025 0.5 371 57.0664)" fill="url(#paint3_linear_2808_37339)"/>
<rect width="150.111" height="150.111" transform="matrix(0.866025 0.5 -0.866025 0.5 371 27.0469)" fill="url(#paint4_linear_2808_37339)"/>
<rect width="150.111" height="150.111" transform="matrix(0.866025 0.5 -0.866025 0.5 371 -2.97656)" fill="url(#paint5_linear_2808_37339)"/>
<rect width="150.111" height="150.111" transform="matrix(0.866025 0.5 -0.866025 0.5 371 -33)" fill="url(#paint6_linear_2808_37339)"/>
</g>
</g>
</g>
<defs>
<linearGradient id="paint0_linear_2808_37339" x1="66.7866" y1="-23.9264" x2="153.535" y2="225.707" gradientUnits="userSpaceOnUse">
<stop stop-color="#C695E4"/>
<stop offset="1" stop-color="#A74DDF"/>
</linearGradient>
<linearGradient id="paint1_linear_2808_37339" x1="355.364" y1="168.846" x2="234.253" y2="-35.0391" gradientUnits="userSpaceOnUse">
<stop stop-color="white"/>
<stop offset="1" stop-color="#999999" stop-opacity="0"/>
</linearGradient>
<linearGradient id="paint2_linear_2808_37339" x1="167.776" y1="166.221" x2="32.6765" y2="166.221" gradientUnits="userSpaceOnUse">
<stop stop-color="#F7F7F7" stop-opacity="0.85"/>
<stop offset="1" stop-color="#3F3F3F" stop-opacity="0.83"/>
</linearGradient>
<linearGradient id="paint3_linear_2808_37339" x1="165.9" y1="164.344" x2="9.64665" y2="170.585" gradientUnits="userSpaceOnUse">
<stop stop-color="white"/>
<stop offset="1" stop-color="#3F3F3F"/>
</linearGradient>
<linearGradient id="paint4_linear_2808_37339" x1="162.147" y1="160.592" x2="9.64616" y2="166.826" gradientUnits="userSpaceOnUse">
<stop stop-color="white"/>
<stop offset="1" stop-color="#3F3F3F"/>
</linearGradient>
<linearGradient id="paint5_linear_2808_37339" x1="165.61" y1="168.387" x2="5.32329" y2="170.525" gradientUnits="userSpaceOnUse">
<stop stop-color="white"/>
<stop offset="1" stop-color="#3F3F3F"/>
</linearGradient>
<linearGradient id="paint6_linear_2808_37339" x1="150.889" y1="149.333" x2="-0.0156382" y2="151.469" gradientUnits="userSpaceOnUse">
<stop stop-color="white"/>
<stop offset="1" stop-color="#3F3F3F"/>
</linearGradient>
<clipPath id="clip0_2808_37339">
<path d="M0 12C0 5.37258 5.37258 0 12 0H420C426.627 0 432 5.37258 432 12V192C432 198.627 426.627 204 420 204H12C5.37259 204 0 198.627 0 192V12Z" fill="white"/>
</clipPath>
</defs>
</svg>
