<svg width="432" height="204" viewBox="0 0 432 204" fill="none" xmlns="http://www.w3.org/2000/svg">
<g clip-path="url(#clip0_3440_52040)">
<path d="M0 12C0 5.37258 5.37258 0 12 0H420C426.627 0 432 5.37258 432 12V192C432 198.627 426.627 204 420 204H12C5.37259 204 0 198.627 0 192V12Z" fill="url(#paint0_linear_3440_52040)"/>
<mask id="mask0_3440_52040" style="mask-type:alpha" maskUnits="userSpaceOnUse" x="0" y="0" width="432" height="204">
<path d="M0 12C0 5.37258 5.37258 0 12 0H420C426.627 0 432 5.37258 432 12V192C432 198.627 426.627 204 420 204H12C5.37259 204 0 198.627 0 192V12Z" fill="url(#paint1_linear_3440_52040)"/>
</mask>
<g mask="url(#mask0_3440_52040)">
<g opacity="0.3">
<rect width="150.111" height="150.111" transform="matrix(0.866025 0.5 -0.866025 0.5 371 87.0898)" fill="url(#paint2_linear_3440_52040)"/>
<rect width="150.111" height="150.111" transform="matrix(0.866025 0.5 -0.866025 0.5 371 57.0664)" fill="url(#paint3_linear_3440_52040)"/>
<rect width="150.111" height="150.111" transform="matrix(0.866025 0.5 -0.866025 0.5 371 27.0469)" fill="url(#paint4_linear_3440_52040)"/>
<rect width="150.111" height="150.111" transform="matrix(0.866025 0.5 -0.866025 0.5 371 -2.97656)" fill="url(#paint5_linear_3440_52040)"/>
<rect width="150.111" height="150.111" transform="matrix(0.866025 0.5 -0.866025 0.5 371 -33)" fill="url(#paint6_linear_3440_52040)"/>
</g>
</g>
<path d="M41.8125 34.9062C47.9219 34.9062 52.5156 38 52.5312 42.6875C52.5156 46.9844 48.8906 49.8594 43.7812 50.4219V55.2812H54.875V58.5625H28.8438V55.2812H39.8125V50.4219C34.7344 49.8438 31.125 46.9688 31.125 42.6875C31.125 38 35.7031 34.9062 41.8125 34.9062ZM35.0625 42.6875C35.0625 45.6875 37.8281 47.3594 41.8125 47.375C45.8125 47.3594 48.5781 45.6875 48.5938 42.6875C48.5781 39.8438 45.8125 38.0781 41.8125 38.0938C37.8281 38.0781 35.0625 39.8438 35.0625 42.6875ZM79.5 39.1875V42.3438H59.7188V33.7812H63.6875V39.1875H79.5ZM56.4688 47.4062V44.25H82.5V47.4062H56.4688ZM59.4375 52.1875V49.125H79.375V56.6875H63.5V58.5H80.25V61.5625H59.5V53.8125H75.4062V52.1875H59.4375ZM110.094 47.9688V51.1562H84.1562V47.9688H110.094ZM86.75 40.125C86.75 36.5 90.8594 34.2812 97.125 34.3125C103.344 34.2812 107.453 36.5 107.469 40.125C107.453 43.7656 103.344 46 97.125 46C90.8594 46 86.75 43.7656 86.75 40.125ZM87.2812 61.375V53.0625H91.2812V58.1875H107.156V61.375H87.2812ZM90.9062 40.125C90.875 41.8906 93.1719 42.7812 97.125 42.7812C101.047 42.7812 103.344 41.8906 103.344 40.125C103.344 38.4062 101.047 37.4688 97.125 37.4375C93.1719 37.4688 90.875 38.4062 90.9062 40.125ZM133.969 34.9375V36.9375H139.188V33.4375H143.156V49.5H139.188V45.375H133.969V47.4062H120.344V34.9375H133.969ZM122.344 58.8125C128.078 58.3281 131.078 56.0938 131.453 54.0312H123.438V51.0938H131.5V48.7812H135.562V51.0938H143.562V54.0312H135.609C136 55.9844 139.031 58.2656 144.688 58.8125L143.406 61.75C138.641 61.3125 135.266 59.6094 133.516 57.375C131.781 59.6562 128.375 61.3281 123.625 61.75L122.344 58.8125ZM124.281 44.3438H130V38.0312H124.281V44.3438ZM133.969 42.3125H139.188V39.9375H133.969V42.3125ZM177.156 34.75V37.2188C177.172 39.5938 177.172 42.1562 176.562 45.5H180.25V48.6562H169.375V54.7188H165.406V48.6562H154.219V45.5H172.516C173.109 42.4688 173.172 40.125 173.188 37.9375H157.406V34.75H177.156ZM157.25 61.375V52.1562H161.219V58.1875H177.594V61.375H157.25ZM206.531 33.4375V61.875H202.688V33.4375H206.531ZM182.75 55.5312V36.6562H193.625V39.8438H186.656V52.2344C189.688 52.2031 192 52.0312 194.656 51.5L194.969 54.75C191.75 55.3906 188.891 55.5312 184.719 55.5312H182.75ZM191.688 47.0625V43.8125H196.781V33.9375H200.5V60.5938H196.781V47.0625H191.688ZM39.875 81.1875C39.8594 85.7812 42.2344 90.7031 47 92.6875L44.8438 95.8125C41.5 94.3906 39.1875 91.5625 37.9062 88.125C36.625 91.8594 34.2656 94.9844 30.9062 96.5312L28.625 93.375C33.3438 91.2656 35.7812 86 35.7812 81.1875V79.4375H29.75V76.1875H45.8125V79.4375H39.875V81.1875ZM48.625 101.875V73.4375H52.6562V101.875H48.625ZM80.5938 73.4688V94.9375H76.5938V92.6875H71.1562V89.9688H76.5938V73.4688H80.5938ZM56.4062 86.0625C61.6094 86.0312 68.6406 85.9531 74.6562 85.2188L74.875 88.0625C72.625 88.4375 70.2969 88.7031 68 88.875V94.2812H64V98.1875H81.2188V101.375H60.0312V92.875H64V89.1094C61.4531 89.2031 59.0312 89.2188 56.875 89.2188L56.4062 86.0625ZM58.5 79.5312C58.5 76.5 61.4219 74.4219 65.6562 74.4375C69.7812 74.4219 72.7344 76.5 72.75 79.5312C72.7344 82.5781 69.7812 84.5469 65.6562 84.5312C61.4219 84.5469 58.5 82.5781 58.5 79.5312ZM62.2812 79.5312C62.2656 80.9062 63.625 81.6719 65.6562 81.6562C67.5625 81.6719 68.9375 80.9062 68.9688 79.5312C68.9375 78.125 67.5625 77.3438 65.6562 77.3438C63.625 77.3438 62.2656 78.125 62.2812 79.5312ZM106.719 73.375V79.5625H110.562V82.75H106.719V88.7812H102.719V73.375H106.719ZM84.1562 78.5938V75.5625H90.625V73.25H94.5938V75.5625H101.031V78.5938H84.1562ZM85.5312 83.9375C85.5312 81.0938 88.3594 79.2969 92.5938 79.2812C96.8594 79.2969 99.5938 81.0938 99.5938 83.9375C99.5938 86.8438 96.8594 88.5781 92.5938 88.5938C88.3594 88.5781 85.5312 86.8438 85.5312 83.9375ZM87.8438 92.8125V89.9375H106.719V97.125H91.8125V98.75H107.531V101.688H87.9062V94.4062H102.75V92.8125H87.8438ZM89.4375 83.9375C89.4219 85.1562 90.625 85.7344 92.5938 85.75C94.5781 85.7344 95.8125 85.1562 95.8125 83.9375C95.8125 82.7344 94.5781 82.0781 92.5938 82.0938C90.625 82.0781 89.4219 82.7344 89.4375 83.9375ZM134.594 73.4375V84.5938H138.375V87.875H134.594V101.875H130.594V73.4375H134.594ZM111.25 93.625C115.125 89.4219 116.25 85.2656 116.5 79.5938H112.5V76.3438H120.312C120.281 84.1562 119.469 90.25 114.375 95.8438L111.25 93.625ZM119.281 95.4688C123.141 90.7188 124.203 85.8438 124.422 79.5938H121.25V76.3438H128.188C128.172 84.4531 127.469 91.5 122.438 97.6875L119.281 95.4688ZM165.5 95.2812V98.5625H139.469V95.2812H145.281V88.3125C143.078 86.9844 141.75 84.9688 141.75 82.4688C141.75 77.8594 146.25 74.8281 152.438 74.8125C158.594 74.8281 163.141 77.8594 163.156 82.4688C163.141 84.9219 161.859 86.9062 159.719 88.2344V95.2812H165.5ZM145.688 82.4688C145.688 85.25 148.359 86.9688 152.438 86.9688C156.453 86.9688 159.203 85.25 159.219 82.4688C159.203 79.6094 156.453 77.9531 152.438 77.9688C148.359 77.9531 145.688 79.6094 145.688 82.4688ZM149.219 95.2812H155.688V89.75C154.672 89.9531 153.578 90.0625 152.438 90.0625C151.297 90.0625 150.219 89.9531 149.219 89.7656V95.2812ZM172.094 91.875C172.109 87.9844 173.156 86.7969 175.031 85.625C176.375 84.75 177.422 83.7812 177.406 82.3438C177.422 80.7812 176.203 79.7656 174.688 79.75C173.234 79.7656 171.875 80.7344 171.812 82.5625H167.375C167.453 78.1719 170.719 76.0625 174.719 76.0625C179.078 76.0625 182.156 78.3281 182.156 82.1875C182.156 84.7656 180.828 86.3906 178.781 87.625C177.016 88.6719 176.234 89.6875 176.219 91.875V92.2188H172.094V91.875ZM171.625 96.6562C171.594 95.2188 172.781 94.0469 174.25 94.0625C175.641 94.0469 176.844 95.2188 176.844 96.6562C176.844 98.1094 175.641 99.2812 174.25 99.2812C172.781 99.2812 171.594 98.1094 171.625 96.6562Z" fill="white"/>
<path d="M38.9375 123.912V136.162H37.6934V129.805H36.1758V135.574H34.959V124.24H36.1758V128.752H37.6934V123.912H38.9375ZM28.4102 132.662C31.1309 131.117 32.2725 129.032 32.4775 126.537H28.9297V125.471H33.7422C33.7354 128.69 32.6689 131.589 29.1621 133.564L28.4102 132.662ZM46.8262 124.992C46.8193 126.619 48.8086 128.144 51.2148 128.465L50.709 129.531C48.7061 129.21 46.9492 128.171 46.1494 126.729C45.3496 128.171 43.5928 129.21 41.6035 129.531L41.084 128.465C43.4834 128.144 45.4658 126.64 45.4727 124.992V124.322H46.8262V124.992ZM40.5508 131.801V130.734H51.7207V131.801H46.7441V136.162H45.4727V131.801H40.5508ZM58.8574 124.992V130.707H53.1289V124.992H58.8574ZM54.4004 129.682H57.5859V126.045H54.4004V129.682ZM54.5098 135.902V132.02H55.8086V134.85H62.7949V135.902H54.5098ZM60.9766 132.881V123.898H62.2754V127.562H64.0527V128.656H62.2754V132.881H60.9766ZM78.3809 123.912V131.199H77.082V128.096H74.7988V127.029H77.082V123.912H78.3809ZM68.168 130.092C70.0684 129.429 71.2373 127.774 71.2305 126.086V125.812H68.5781V124.76H75.1816V125.812H72.5566V126.072C72.5498 127.624 73.6572 129.135 75.5098 129.764L74.8398 130.789C73.4658 130.317 72.4541 129.333 71.9209 128.123C71.3877 129.49 70.3145 130.591 68.8516 131.131L68.168 130.092ZM70.1367 133.852C70.1299 132.396 71.7021 131.548 74.2793 131.541C76.8428 131.548 78.415 132.396 78.4219 133.852C78.415 135.308 76.8428 136.155 74.2793 136.162C71.7021 136.155 70.1299 135.308 70.1367 133.852ZM71.4219 133.852C71.415 134.679 72.4814 135.15 74.2793 135.137C76.0635 135.15 77.1299 134.679 77.1367 133.852C77.1299 133.018 76.0635 132.546 74.2793 132.553C72.4814 132.546 71.415 133.018 71.4219 133.852ZM89.8105 123.912V128.875H91.7793V129.955H89.8105V136.162H88.5254V123.912H89.8105ZM80.1992 126.893V125.826H83.2207V124.076H84.5195V125.826H87.459V126.893H80.1992ZM80.8281 130.639C80.8281 128.971 82.1133 127.795 83.877 127.795C85.6338 127.795 86.9189 128.971 86.9258 130.639C86.9189 132.32 85.6338 133.489 83.877 133.496C82.1133 133.489 80.8281 132.32 80.8281 130.639ZM82.0723 130.639C82.0654 131.705 82.8311 132.416 83.877 132.402C84.916 132.416 85.6748 131.705 85.6816 130.639C85.6748 129.593 84.916 128.868 83.877 128.861C82.8311 128.868 82.0654 129.593 82.0723 130.639ZM98.6152 124.951V125.99H101.281V123.926H102.58V132.854H101.281V129.682H98.6152V130.748H92.9277V124.951H98.6152ZM94.2129 129.723H97.3438V126.004H94.2129V129.723ZM94.582 135.902V132.033H95.8945V134.85H102.854V135.902H94.582ZM98.6152 128.615H101.281V127.057H98.6152V128.615ZM117.428 123.912V128.656H119.396V129.75H117.428V136.162H116.129V123.912H117.428ZM108.35 133.25V124.938H109.635V128.082H112.875V124.938H114.16V133.25H108.35ZM109.635 132.184H112.875V129.107H109.635V132.184ZM131.195 133.605V134.699H119.984V133.605H124.92V131.459H121.352V127.562H128.543V125.84H121.324V124.773H129.828V128.602H122.637V130.393H130.115V131.459H126.205V133.605H131.195ZM145.674 123.912V136.189H144.375V123.912H145.674ZM136.186 126.072V125.02H141.928V129.49H137.525V132.17C139.515 132.163 141.244 132.067 143.295 131.732L143.418 132.799C141.251 133.161 139.405 133.243 137.238 133.25H136.199V128.451H140.602V126.072H136.186ZM153.822 125.648C153.822 127.645 155.948 129.531 158.307 129.955L157.705 131.035C155.743 130.611 153.945 129.326 153.152 127.604C152.346 129.319 150.548 130.598 148.586 131.035L148.012 129.955C150.336 129.518 152.448 127.645 152.455 125.648V124.719H153.822V125.648ZM147.602 134.549V133.469H158.812V134.549H147.602ZM169.641 130.434V131.473H161.109V124.924H169.518V125.977H162.422V127.631H169.258V128.656H162.422V130.434H169.641ZM159.701 134.617V133.551H170.912V134.617H159.701ZM182.998 129.531V130.529H171.787V129.531H182.998ZM173.113 132.32V131.391H181.617V134.084H174.426V135.096H182V136.012H173.127V133.223H180.332V132.32H173.113ZM173.195 125.143V124.227H181.59V126.879H174.508V127.809H181.795V128.725H173.223V126.018H180.291V125.143H173.195ZM193.525 124.992V130.707H187.797V124.992H193.525ZM189.068 129.682H192.254V126.045H189.068V129.682ZM189.178 135.902V132.02H190.477V134.85H197.463V135.902H189.178ZM195.645 132.881V123.898H196.943V127.562H198.721V128.656H196.943V132.881H195.645ZM210.602 128.93V129.969H199.418V128.93H210.602ZM200.758 131.938V130.939H209.18V133.906H202.043V135H209.521V136.025H200.771V132.949H207.895V131.938H200.758ZM200.881 128.041V124.268H209.152V125.32H202.18V127.002H209.275V128.041H200.881ZM214.84 124.828C216.508 124.835 217.718 126.243 217.916 128.506H220.445V123.912H221.73V136.189H220.445V129.559H217.93C217.786 131.951 216.549 133.435 214.84 133.428C213.015 133.435 211.723 131.767 211.736 129.121C211.723 126.503 213.015 124.835 214.84 124.828ZM212.967 129.121C212.974 131.069 213.732 132.266 214.84 132.266C215.947 132.266 216.706 131.069 216.713 129.121C216.706 127.2 215.947 125.997 214.84 125.99C213.732 125.997 212.974 127.2 212.967 129.121ZM233.543 129.723V130.789H225.012V125.006H233.434V126.072H226.297V129.723H233.543ZM223.617 134.549V133.469H234.828V134.549H223.617ZM245.916 123.912V136.189H244.631V131.062H242.238V129.982H244.631V127.713H242.307V126.646H244.631V123.912H245.916ZM236.141 126.045V124.992H241.568V129.463H237.467V132.279C239.196 132.272 240.659 132.19 242.402 131.938L242.512 133.004C240.598 133.305 239.032 133.359 237.098 133.359H236.168V128.438H240.297V126.045H236.141ZM259.027 133.551V134.631H247.816V133.551H250.496V130.352C249.491 129.798 248.876 128.923 248.883 127.822C248.876 125.895 250.77 124.63 253.395 124.623C256.026 124.63 257.92 125.895 257.92 127.822C257.92 128.902 257.332 129.771 256.348 130.324V133.551H259.027ZM250.141 127.822C250.141 129.135 251.474 129.989 253.395 129.996C255.302 129.989 256.655 129.135 256.662 127.822C256.655 126.503 255.302 125.662 253.395 125.662C251.474 125.662 250.141 126.503 250.141 127.822ZM251.781 133.551H255.035V130.83C254.536 130.946 253.982 131.008 253.395 131.008C252.82 131.008 252.273 130.946 251.781 130.83V133.551ZM261.311 135.096C260.777 135.089 260.333 134.658 260.34 134.125C260.333 133.592 260.777 133.154 261.311 133.154C261.837 133.154 262.274 133.592 262.281 134.125C262.274 134.658 261.837 135.089 261.311 135.096Z" fill="white"/>
<path d="M34.0293 148.65C36.6475 148.657 38.5547 149.949 38.5547 151.904C38.5547 153.736 36.9551 154.96 34.6719 155.145V157.551H39.6621V158.631H28.4512V157.551H33.3867V155.145C31.1172 154.96 29.5107 153.736 29.5176 151.904C29.5107 149.949 31.4248 148.657 34.0293 148.65ZM30.7754 151.904C30.7754 153.278 32.1426 154.133 34.0293 154.146C35.9297 154.133 37.29 153.278 37.2969 151.904C37.29 150.578 35.9297 149.703 34.0293 149.717C32.1426 149.703 30.7754 150.578 30.7754 151.904ZM50.4355 150.701V151.754H42.0273V148.09H43.2988V150.701H50.4355ZM40.5371 153.873V152.834H51.748V153.873H40.5371ZM41.9043 155.869V154.857H50.3398V157.852H43.2305V158.986H50.7637V160.012H41.9316V156.895H49.0547V155.869H41.9043ZM56.6426 148.787C58.5771 148.78 59.9717 149.977 59.9785 151.699C59.9717 153.422 58.5771 154.618 56.6426 154.625C54.7148 154.618 53.2998 153.422 53.3066 151.699C53.2998 149.977 54.7148 148.78 56.6426 148.787ZM52.7188 156.471C54.9473 156.471 58.0371 156.45 60.7168 156.061L60.8125 157.004C58.0439 157.537 55.0703 157.551 52.8828 157.551L52.7188 156.471ZM54.5918 151.699C54.5781 152.786 55.4531 153.49 56.6426 153.49C57.832 153.49 58.707 152.786 58.707 151.699C58.707 150.626 57.832 149.908 56.6426 149.908C55.4531 149.908 54.5781 150.626 54.5918 151.699ZM61.4824 160.189V147.912H62.7812V160.189H61.4824ZM72.6797 151.521C72.6729 153.572 74.0195 155.691 75.9062 156.498L75.1953 157.51C73.7529 156.874 72.6045 155.521 72.0371 153.887C71.4697 155.637 70.3213 157.127 68.8926 157.824L68.1406 156.799C69.9863 155.931 71.3535 153.634 71.3672 151.521V150.223H68.5645V149.143H75.4688V150.223H72.6797V151.521ZM77.0137 160.162V147.912H78.3125V160.162H77.0137ZM90.4531 147.926V157.209H89.1543V156.033H86.6934V155.117H89.1543V147.926H90.4531ZM80.2129 153.518C82.4756 153.497 85.5312 153.477 88.1426 153.148L88.2246 154.078C87.1787 154.256 86.0781 154.365 84.998 154.44V156.826H83.6992V154.509C82.5098 154.557 81.3682 154.557 80.377 154.557L80.2129 153.518ZM81.1699 150.551C81.1631 149.252 82.4004 148.391 84.2188 148.391C86.0098 148.391 87.2539 149.252 87.2539 150.551C87.2539 151.856 86.0098 152.684 84.2188 152.684C82.4072 152.684 81.1631 151.856 81.1699 150.551ZM81.9082 159.902V156.307H83.1934V158.85H90.7539V159.902H81.9082ZM82.4004 150.551C82.3936 151.275 83.1318 151.727 84.2188 151.727C85.2646 151.727 86.0166 151.275 86.0234 150.551C86.0166 149.819 85.2646 149.348 84.2188 149.361C83.1318 149.348 82.3936 149.819 82.4004 150.551ZM105.957 147.912V160.189H104.658V147.912H105.957ZM96.4688 150.072V149.02H102.211V153.49H97.8086V156.17C99.7979 156.163 101.527 156.067 103.578 155.732L103.701 156.799C101.534 157.161 99.6885 157.243 97.5215 157.25H96.4824V152.451H100.885V150.072H96.4688ZM114.105 149.648C114.105 151.645 116.231 153.531 118.59 153.955L117.988 155.035C116.026 154.611 114.229 153.326 113.436 151.604C112.629 153.319 110.831 154.598 108.869 155.035L108.295 153.955C110.619 153.518 112.731 151.645 112.738 149.648V148.719H114.105V149.648ZM107.885 158.549V157.469H119.096V158.549H107.885ZM129.924 154.434V155.473H121.393V148.924H129.801V149.977H122.705V151.631H129.541V152.656H122.705V154.434H129.924ZM119.984 158.617V157.551H131.195V158.617H119.984ZM141.996 151.494V152.533H133.561V148.35H134.846V151.494H141.996ZM132.07 155.117V154.078H143.281V155.117H132.07ZM133.465 159.875V156.279H134.764V158.809H142.078V159.875H133.465ZM151.348 150.264C151.348 151.604 152.202 152.957 153.795 153.559L153.111 154.557C151.97 154.119 151.17 153.285 150.732 152.28C150.281 153.415 149.447 154.399 148.258 154.912L147.547 153.9C149.201 153.183 150.09 151.624 150.09 150.264V148.678H151.348V150.264ZM149.803 157.92C149.789 156.525 151.382 155.698 153.945 155.691C156.502 155.698 158.108 156.525 158.115 157.92C158.108 159.314 156.502 160.142 153.945 160.135C151.382 160.142 149.789 159.314 149.803 157.92ZM151.088 157.92C151.074 158.699 152.161 159.15 153.945 159.137C155.723 159.15 156.81 158.699 156.816 157.92C156.81 157.134 155.723 156.683 153.945 156.689C152.161 156.683 151.074 157.134 151.088 157.92ZM154.178 155.076V148.145H155.381V151.111H156.816V147.926H158.047V155.459H156.816V152.178H155.381V155.076H154.178ZM164.049 149.744C164.042 151.46 165.156 152.991 167.016 153.6L166.305 154.611C164.958 154.119 163.967 153.176 163.434 151.945C162.907 153.347 161.841 154.447 160.357 154.98L159.66 153.941C161.615 153.271 162.75 151.638 162.764 149.799V148.596H164.049V149.744ZM161.67 157.824C161.663 156.341 163.235 155.479 165.812 155.486C168.376 155.479 169.948 156.341 169.955 157.824C169.948 159.301 168.376 160.142 165.812 160.135C163.235 160.142 161.663 159.301 161.67 157.824ZM162.955 157.824C162.948 158.638 164.015 159.116 165.812 159.109C167.597 159.116 168.663 158.638 168.67 157.824C168.663 156.983 167.597 156.498 165.812 156.498C164.015 156.498 162.948 156.983 162.955 157.824ZM166.031 151.467V150.4H168.615V147.912H169.914V155.145H168.615V151.467H166.031ZM181.344 147.912V152.875H183.312V153.955H181.344V160.162H180.059V147.912H181.344ZM171.732 150.893V149.826H174.754V148.076H176.053V149.826H178.992V150.893H171.732ZM172.361 154.639C172.361 152.971 173.646 151.795 175.41 151.795C177.167 151.795 178.452 152.971 178.459 154.639C178.452 156.32 177.167 157.489 175.41 157.496C173.646 157.489 172.361 156.32 172.361 154.639ZM173.605 154.639C173.599 155.705 174.364 156.416 175.41 156.402C176.449 156.416 177.208 155.705 177.215 154.639C177.208 153.593 176.449 152.868 175.41 152.861C174.364 152.868 173.599 153.593 173.605 154.639ZM190.148 148.951V149.99H192.814V147.926H194.113V156.854H192.814V153.682H190.148V154.748H184.461V148.951H190.148ZM185.746 153.723H188.877V150.004H185.746V153.723ZM186.115 159.902V156.033H187.428V158.85H194.387V159.902H186.115ZM190.148 152.615H192.814V151.057H190.148V152.615ZM205.693 148.992C205.687 150.619 207.676 152.144 210.082 152.465L209.576 153.531C207.573 153.21 205.816 152.171 205.017 150.729C204.217 152.171 202.46 153.21 200.471 153.531L199.951 152.465C202.351 152.144 204.333 150.64 204.34 148.992V148.322H205.693V148.992ZM199.418 155.801V154.734H210.588V155.801H205.611V160.162H204.34V155.801H199.418ZM221.73 147.912V155.199H220.432V152.096H218.148V151.029H220.432V147.912H221.73ZM211.518 154.092C213.418 153.429 214.587 151.774 214.58 150.086V149.812H211.928V148.76H218.531V149.812H215.906V150.072C215.899 151.624 217.007 153.135 218.859 153.764L218.189 154.789C216.815 154.317 215.804 153.333 215.271 152.123C214.737 153.49 213.664 154.591 212.201 155.131L211.518 154.092ZM213.486 157.852C213.479 156.396 215.052 155.548 217.629 155.541C220.192 155.548 221.765 156.396 221.771 157.852C221.765 159.308 220.192 160.155 217.629 160.162C215.052 160.155 213.479 159.308 213.486 157.852ZM214.771 157.852C214.765 158.679 215.831 159.15 217.629 159.137C219.413 159.15 220.479 158.679 220.486 157.852C220.479 157.018 219.413 156.546 217.629 156.553C215.831 156.546 214.765 157.018 214.771 157.852ZM233.762 147.912V160.189H232.463V147.912H233.762ZM224.041 153.121C224.041 150.503 225.36 148.835 227.213 148.828C229.031 148.835 230.371 150.503 230.371 153.121C230.371 155.767 229.031 157.435 227.213 157.428C225.36 157.435 224.041 155.767 224.041 153.121ZM225.299 153.121C225.292 155.069 226.071 156.266 227.213 156.266C228.334 156.266 229.113 155.069 229.113 153.121C229.113 151.2 228.334 149.997 227.213 149.99C226.071 149.997 225.292 151.2 225.299 153.121ZM241.883 148.104V149.17H247.557V148.104H248.855V152.164H240.598V148.104H241.883ZM239.135 154.105V153.053H250.305V154.105H245.355V155.158H248.896V158.016H241.76V159.041H249.238V160.039H240.488V157.086H247.611V156.129H240.475V155.158H244.057V154.105H239.135ZM241.883 151.18H247.557V150.127H241.883V151.18ZM260.777 147.912V152.793H262.678V153.873H260.777V160.148H259.479V147.912H260.777ZM251.248 156.881C254.317 155.35 255.985 153.135 256.252 150.277H251.863V149.197H257.578C257.564 152.738 256.006 155.903 251.973 157.893L251.248 156.881ZM273.232 151.221V152.273H264.824V148.131H266.109V151.221H273.232ZM263.334 154.639V153.572H274.518V154.639H263.334ZM264.66 157.865C264.66 156.437 266.253 155.63 268.912 155.637C271.551 155.63 273.13 156.437 273.137 157.865C273.13 159.301 271.551 160.107 268.912 160.107C266.253 160.107 264.66 159.301 264.66 157.865ZM265.973 157.865C265.966 158.651 267.039 159.103 268.912 159.109C270.758 159.103 271.838 158.651 271.838 157.865C271.838 157.072 270.758 156.655 268.912 156.648C267.039 156.655 265.966 157.072 265.973 157.865ZM281.49 149.936V150.988H275.406V149.936H277.812V148.268H279.098V149.936H281.49ZM275.803 154.543C275.796 152.896 276.917 151.727 278.455 151.727C280.007 151.727 281.114 152.896 281.121 154.543C281.114 156.218 280.007 157.394 278.455 157.387C276.917 157.394 275.796 156.218 275.803 154.543ZM276.951 154.543C276.944 155.582 277.573 156.279 278.455 156.279C279.337 156.279 279.973 155.582 279.973 154.543C279.973 153.524 279.337 152.813 278.455 152.807C277.573 152.813 276.944 153.524 276.951 154.543ZM282.051 159.588V148.186H283.281V153.012H284.689V147.912H285.92V160.162H284.689V154.078H283.281V159.588H282.051ZM298.744 157.551V158.631H287.533V157.551H290.213V154.352C289.208 153.798 288.593 152.923 288.6 151.822C288.593 149.895 290.486 148.63 293.111 148.623C295.743 148.63 297.637 149.895 297.637 151.822C297.637 152.902 297.049 153.771 296.064 154.324V157.551H298.744ZM289.857 151.822C289.857 153.135 291.19 153.989 293.111 153.996C295.019 153.989 296.372 153.135 296.379 151.822C296.372 150.503 295.019 149.662 293.111 149.662C291.19 149.662 289.857 150.503 289.857 151.822ZM291.498 157.551H294.752V154.83C294.253 154.946 293.699 155.008 293.111 155.008C292.537 155.008 291.99 154.946 291.498 154.83V157.551ZM301.027 159.096C300.494 159.089 300.05 158.658 300.057 158.125C300.05 157.592 300.494 157.154 301.027 157.154C301.554 157.154 301.991 157.592 301.998 158.125C301.991 158.658 301.554 159.089 301.027 159.096Z" fill="white"/>
</g>
<defs>
<linearGradient id="paint0_linear_3440_52040" x1="66.7866" y1="-23.9264" x2="153.535" y2="225.707" gradientUnits="userSpaceOnUse">
<stop stop-color="#C695E4"/>
<stop offset="1" stop-color="#A74DDF"/>
</linearGradient>
<linearGradient id="paint1_linear_3440_52040" x1="355.364" y1="168.846" x2="234.253" y2="-35.0391" gradientUnits="userSpaceOnUse">
<stop stop-color="white"/>
<stop offset="1" stop-color="#999999" stop-opacity="0"/>
</linearGradient>
<linearGradient id="paint2_linear_3440_52040" x1="109.129" y1="145.592" x2="6.72736" y2="70.6506" gradientUnits="userSpaceOnUse">
<stop stop-color="white" stop-opacity="0.8"/>
<stop offset="1" stop-color="white" stop-opacity="0"/>
</linearGradient>
<linearGradient id="paint3_linear_3440_52040" x1="109.129" y1="145.592" x2="6.72736" y2="70.6506" gradientUnits="userSpaceOnUse">
<stop stop-color="white" stop-opacity="0.8"/>
<stop offset="1" stop-color="white" stop-opacity="0"/>
</linearGradient>
<linearGradient id="paint4_linear_3440_52040" x1="109.129" y1="145.592" x2="6.72736" y2="70.6506" gradientUnits="userSpaceOnUse">
<stop stop-color="white" stop-opacity="0.8"/>
<stop offset="1" stop-color="white" stop-opacity="0"/>
</linearGradient>
<linearGradient id="paint5_linear_3440_52040" x1="109.129" y1="145.592" x2="6.72736" y2="70.6506" gradientUnits="userSpaceOnUse">
<stop stop-color="white" stop-opacity="0.8"/>
<stop offset="1" stop-color="white" stop-opacity="0"/>
</linearGradient>
<linearGradient id="paint6_linear_3440_52040" x1="109.129" y1="145.592" x2="6.72736" y2="70.6506" gradientUnits="userSpaceOnUse">
<stop stop-color="white" stop-opacity="0.8"/>
<stop offset="1" stop-color="white" stop-opacity="0"/>
</linearGradient>
<clipPath id="clip0_3440_52040">
<path d="M0 12C0 5.37258 5.37258 0 12 0H420C426.627 0 432 5.37258 432 12V192C432 198.627 426.627 204 420 204H12C5.37259 204 0 198.627 0 192V12Z" fill="white"/>
</clipPath>
</defs>
</svg>
