<svg width="120" height="101" viewBox="0 0 120 101" fill="none" xmlns="http://www.w3.org/2000/svg">
<g filter="url(#filter0_iii_3327_53456)">
<path d="M24.7074 18.4241C30.72 14.419 38.8405 16.0461 42.8459 22.0585C46.8512 28.0712 45.224 36.1926 39.2113 40.1979C34.6173 43.2581 28.7929 43.0295 24.5136 40.0696L15.9633 45.7654C14.1424 46.9784 11.6829 46.4856 10.4699 44.6647C9.25742 42.844 9.75009 40.3853 11.5704 39.1723L19.6635 33.7803C17.6449 28.2407 19.583 21.8378 24.7074 18.4241ZM38.3106 25.0789C35.9741 21.5715 31.2363 20.6222 27.729 22.9586C24.2218 25.2951 23.2724 30.033 25.6087 33.5403C27.9452 37.0474 32.6831 37.9967 36.1904 35.6605C39.6977 33.3241 40.6468 28.5862 38.3106 25.0789Z" fill="#7E8795"/>
</g>
<path d="M43.2044 52.323L44.9917 51.0875L48.4649 52.0938L44.776 54.4467L43.2044 52.323Z" fill="#EFE0F8"/>
<g filter="url(#filter1_ii_3327_53456)">
<path d="M61.0501 44.0632C61.3695 42.3273 63.0281 41.23 64.7504 41.6153L101.013 49.727C102.785 50.1235 103.937 51.9093 103.566 53.6856L96.0072 89.8453C95.6525 91.5423 94.0148 92.5965 92.3218 92.2178L56.8792 84.2902C55.1647 83.9068 54.0349 82.1986 54.3528 80.4706L61.0501 44.0632Z" fill="#B9ABF1"/>
</g>
<path d="M59.9778 44.9548C60.2972 43.2188 61.9558 42.1216 63.6781 42.5068L100.383 50.7174C101.564 50.9817 102.332 52.1721 102.084 53.3562L94.3769 90.255C94.0224 91.9522 92.3846 93.0067 90.6914 92.6279L55.869 84.8391C54.1545 84.4556 53.0247 82.7474 53.3427 81.0193L59.9778 44.9548Z" fill="#A392EC"/>
<path d="M92.2264 92.5836L93.0795 89.152L94.6026 89.5667L93.9513 92.1423L92.2264 92.5836Z" fill="#9C89E7"/>
<g filter="url(#filter2_ii_3327_53456)">
<path d="M49.5437 40.2674C49.3804 38.483 50.6965 36.9048 52.4812 36.7448L78.1908 34.4404C79.9861 34.2795 81.5676 35.6146 81.7102 37.4115L84.5767 73.5369C84.7141 75.2684 83.4616 76.8003 81.7373 77.0098L56.5363 80.0708C54.7225 80.2911 53.0853 78.969 52.9188 77.1495L49.5437 40.2674Z" fill="white"/>
</g>
<path d="M68.5898 41.8086L56.5352 42.6442" stroke="#C2CCDB" stroke-width="1.72814" stroke-linecap="round"/>
<path d="M64.4785 46.9756L56.7434 47.5667" stroke="#C2CCDB" stroke-width="1.72814" stroke-linecap="round"/>
<g filter="url(#filter3_ii_3327_53456)">
<path d="M63.6341 35.2091C63.823 33.9491 65.0556 33.1254 66.292 33.433L94.5422 40.4619C95.6372 40.7344 96.338 41.8036 96.1509 42.9164L89.4533 82.7534C89.2445 83.9952 88.0221 84.7959 86.8002 84.4912L59.2524 77.6201C58.1724 77.3507 57.4739 76.3047 57.6389 75.2039L63.6341 35.2091Z" fill="white"/>
</g>
<path d="M68.5898 42.2227L87.7296 47.0052" stroke="#939EAE" stroke-width="1.72814" stroke-linecap="round"/>
<path d="M74.9883 48.627L86.7058 51.5786" stroke="#939EAE" stroke-width="1.72814" stroke-linecap="round"/>
<path d="M78.1211 54.4395L85.6302 56.3875" stroke="#939EAE" stroke-width="1.72814" stroke-linecap="round"/>
<g filter="url(#filter4_iii_3327_53456)">
<path d="M44.046 53.3636C43.7888 51.6199 44.976 50.5192 46.6964 50.9063L59.838 53.8633C60.8456 54.0901 61.8631 54.797 62.5686 55.7605L65.0413 59.1378L88.536 64.3438C89.8263 64.6297 91.0305 65.924 91.2235 67.2325L94.4394 89.0319C94.6964 90.7739 93.5117 91.8745 91.7933 91.4901L51.3447 82.4428C49.6263 82.0585 48.0249 80.3347 47.7679 78.5927L44.046 53.3636Z" fill="#DCD6F7"/>
</g>
<g filter="url(#filter5_iii_3327_53456)">
<path d="M42.548 54.4114C42.2907 52.6677 43.4779 51.567 45.1984 51.9541L58.34 54.9112C59.3476 55.1379 60.3651 55.8449 61.0705 56.8084L63.5433 60.1857L87.0379 65.3917C88.3283 65.6776 89.5324 66.9719 89.7255 68.2804L92.9414 90.0797C93.1984 91.8217 92.0137 92.9223 90.2953 92.538L49.8466 83.4907C48.1282 83.1063 46.5269 81.3825 46.2699 79.6405L42.548 54.4114Z" fill="#A595EC"/>
</g>
<defs>
<filter id="filter0_iii_3327_53456" x="9.3764" y="15.2649" width="36.0929" height="31.5941" filterUnits="userSpaceOnUse" color-interpolation-filters="sRGB">
<feFlood flood-opacity="0" result="BackgroundImageFix"/>
<feBlend mode="normal" in="SourceGraphic" in2="BackgroundImageFix" result="shape"/>
<feColorMatrix in="SourceAlpha" type="matrix" values="0 0 0 0 0 0 0 0 0 0 0 0 0 0 0 0 0 0 127 0" result="hardAlpha"/>
<feOffset dy="-1.07071"/>
<feGaussianBlur stdDeviation="0.48182"/>
<feComposite in2="hardAlpha" operator="arithmetic" k2="-1" k3="1"/>
<feColorMatrix type="matrix" values="0 0 0 0 0.278291 0 0 0 0 0.323876 0 0 0 0 0.394785 0 0 0 1 0"/>
<feBlend mode="normal" in2="shape" result="effect1_innerShadow_3327_53456"/>
<feColorMatrix in="SourceAlpha" type="matrix" values="0 0 0 0 0 0 0 0 0 0 0 0 0 0 0 0 0 0 127 0" result="hardAlpha"/>
<feOffset dx="0.428284" dy="0.428284"/>
<feGaussianBlur stdDeviation="0.428284"/>
<feComposite in2="hardAlpha" operator="arithmetic" k2="-1" k3="1"/>
<feColorMatrix type="matrix" values="0 0 0 0 1 0 0 0 0 1 0 0 0 0 1 0 0 0 0.4 0"/>
<feBlend mode="normal" in2="effect1_innerShadow_3327_53456" result="effect2_innerShadow_3327_53456"/>
<feColorMatrix in="SourceAlpha" type="matrix" values="0 0 0 0 0 0 0 0 0 0 0 0 0 0 0 0 0 0 127 0" result="hardAlpha"/>
<feOffset dx="-0.428284" dy="-0.428284"/>
<feGaussianBlur stdDeviation="0.48182"/>
<feComposite in2="hardAlpha" operator="arithmetic" k2="-1" k3="1"/>
<feColorMatrix type="matrix" values="0 0 0 0 0.550804 0 0 0 0 0.59382 0 0 0 0 0.660734 0 0 0 1 0"/>
<feBlend mode="normal" in2="effect2_innerShadow_3327_53456" result="effect3_innerShadow_3327_53456"/>
</filter>
<filter id="filter1_ii_3327_53456" x="51.0586" y="37.2177" width="56.8966" height="58.3175" filterUnits="userSpaceOnUse" color-interpolation-filters="sRGB">
<feFlood flood-opacity="0" result="BackgroundImageFix"/>
<feBlend mode="normal" in="SourceGraphic" in2="BackgroundImageFix" result="shape"/>
<feColorMatrix in="SourceAlpha" type="matrix" values="0 0 0 0 0 0 0 0 0 0 0 0 0 0 0 0 0 0 127 0" result="hardAlpha"/>
<feOffset dx="-3.24026" dy="-12.9611"/>
<feGaussianBlur stdDeviation="2.16018"/>
<feComposite in2="hardAlpha" operator="arithmetic" k2="-1" k3="1"/>
<feColorMatrix type="matrix" values="0 0 0 0 0.52549 0 0 0 0 0.435294 0 0 0 0 0.901961 0 0 0 1 0"/>
<feBlend mode="normal" in2="shape" result="effect1_innerShadow_3327_53456"/>
<feColorMatrix in="SourceAlpha" type="matrix" values="0 0 0 0 0 0 0 0 0 0 0 0 0 0 0 0 0 0 127 0" result="hardAlpha"/>
<feOffset dx="4.32035" dy="3.24026"/>
<feGaussianBlur stdDeviation="2.16018"/>
<feComposite in2="hardAlpha" operator="arithmetic" k2="-1" k3="1"/>
<feColorMatrix type="matrix" values="0 0 0 0 1 0 0 0 0 1 0 0 0 0 1 0 0 0 0.4 0"/>
<feBlend mode="normal" in2="effect1_innerShadow_3327_53456" result="effect2_innerShadow_3327_53456"/>
</filter>
<filter id="filter2_ii_3327_53456" x="43.3293" y="34.4277" width="41.8586" height="46.067" filterUnits="userSpaceOnUse" color-interpolation-filters="sRGB">
<feFlood flood-opacity="0" result="BackgroundImageFix"/>
<feBlend mode="normal" in="SourceGraphic" in2="BackgroundImageFix" result="shape"/>
<feColorMatrix in="SourceAlpha" type="matrix" values="0 0 0 0 0 0 0 0 0 0 0 0 0 0 0 0 0 0 127 0" result="hardAlpha"/>
<feOffset dx="-22"/>
<feGaussianBlur stdDeviation="3.1"/>
<feComposite in2="hardAlpha" operator="arithmetic" k2="-1" k3="1"/>
<feColorMatrix type="matrix" values="0 0 0 0 0.866771 0 0 0 0 0.883247 0 0 0 0 0.92169 0 0 0 0.2 0"/>
<feBlend mode="normal" in2="shape" result="effect1_innerShadow_3327_53456"/>
<feColorMatrix in="SourceAlpha" type="matrix" values="0 0 0 0 0 0 0 0 0 0 0 0 0 0 0 0 0 0 127 0" result="hardAlpha"/>
<feOffset dx="0.6" dy="0.4"/>
<feGaussianBlur stdDeviation="0.35"/>
<feComposite in2="hardAlpha" operator="arithmetic" k2="-1" k3="1"/>
<feColorMatrix type="matrix" values="0 0 0 0 0.825051 0 0 0 0 0.852379 0 0 0 0 0.896103 0 0 0 0.3 0"/>
<feBlend mode="normal" in2="effect1_innerShadow_3327_53456" result="effect2_innerShadow_3327_53456"/>
</filter>
<filter id="filter3_ii_3327_53456" x="56.5351" y="33.3682" width="39.6465" height="52.2676" filterUnits="userSpaceOnUse" color-interpolation-filters="sRGB">
<feFlood flood-opacity="0" result="BackgroundImageFix"/>
<feBlend mode="normal" in="SourceGraphic" in2="BackgroundImageFix" result="shape"/>
<feColorMatrix in="SourceAlpha" type="matrix" values="0 0 0 0 0 0 0 0 0 0 0 0 0 0 0 0 0 0 127 0" result="hardAlpha"/>
<feOffset dx="-0.6" dy="0.4"/>
<feGaussianBlur stdDeviation="0.45"/>
<feComposite in2="hardAlpha" operator="arithmetic" k2="-1" k3="1"/>
<feColorMatrix type="matrix" values="0 0 0 0 0.761569 0 0 0 0 0.798824 0 0 0 0 0.858431 0 0 0 0.4 0"/>
<feBlend mode="normal" in2="shape" result="effect1_innerShadow_3327_53456"/>
<feColorMatrix in="SourceAlpha" type="matrix" values="0 0 0 0 0 0 0 0 0 0 0 0 0 0 0 0 0 0 127 0" result="hardAlpha"/>
<feOffset dx="-1.08009" dy="1.08009"/>
<feGaussianBlur stdDeviation="1.08009"/>
<feComposite in2="hardAlpha" operator="arithmetic" k2="-1" k3="1"/>
<feColorMatrix type="matrix" values="0 0 0 0 1 0 0 0 0 1 0 0 0 0 1 0 0 0 0.2 0"/>
<feBlend mode="normal" in2="effect1_innerShadow_3327_53456" result="effect2_innerShadow_3327_53456"/>
</filter>
<filter id="filter4_iii_3327_53456" x="41.3115" y="48.1289" width="57.4835" height="43.4375" filterUnits="userSpaceOnUse" color-interpolation-filters="sRGB">
<feFlood flood-opacity="0" result="BackgroundImageFix"/>
<feBlend mode="normal" in="SourceGraphic" in2="BackgroundImageFix" result="shape"/>
<feColorMatrix in="SourceAlpha" type="matrix" values="0 0 0 0 0 0 0 0 0 0 0 0 0 0 0 0 0 0 127 0" result="hardAlpha"/>
<feOffset dx="-9.72079" dy="-19.4416"/>
<feGaussianBlur stdDeviation="1.35011"/>
<feComposite in2="hardAlpha" operator="arithmetic" k2="-1" k3="1"/>
<feColorMatrix type="matrix" values="0 0 0 0 0.501873 0 0 0 0 0.407544 0 0 0 0 0.900148 0 0 0 1 0"/>
<feBlend mode="normal" in2="shape" result="effect1_innerShadow_3327_53456"/>
<feColorMatrix in="SourceAlpha" type="matrix" values="0 0 0 0 0 0 0 0 0 0 0 0 0 0 0 0 0 0 127 0" result="hardAlpha"/>
<feOffset dy="-1.08009"/>
<feGaussianBlur stdDeviation="0.702057"/>
<feComposite in2="hardAlpha" operator="arithmetic" k2="-1" k3="1"/>
<feColorMatrix type="matrix" values="0 0 0 0 0.491143 0 0 0 0 0.392197 0 0 0 0 0.877034 0 0 0 1 0"/>
<feBlend mode="normal" in2="effect1_innerShadow_3327_53456" result="effect2_innerShadow_3327_53456"/>
<feColorMatrix in="SourceAlpha" type="matrix" values="0 0 0 0 0 0 0 0 0 0 0 0 0 0 0 0 0 0 127 0" result="hardAlpha"/>
<feOffset dx="11.881" dy="-1.08009"/>
<feGaussianBlur stdDeviation="2.16018"/>
<feComposite in2="hardAlpha" operator="arithmetic" k2="-1" k3="1"/>
<feColorMatrix type="matrix" values="0 0 0 0 1 0 0 0 0 1 0 0 0 0 1 0 0 0 0.25 0"/>
<feBlend mode="normal" in2="effect2_innerShadow_3327_53456" result="effect3_innerShadow_3327_53456"/>
</filter>
<filter id="filter5_iii_3327_53456" x="38.1933" y="45.3964" width="59.1036" height="51.5382" filterUnits="userSpaceOnUse" color-interpolation-filters="sRGB">
<feFlood flood-opacity="0" result="BackgroundImageFix"/>
<feBlend mode="normal" in="SourceGraphic" in2="BackgroundImageFix" result="shape"/>
<feColorMatrix in="SourceAlpha" type="matrix" values="0 0 0 0 0 0 0 0 0 0 0 0 0 0 0 0 0 0 127 0" result="hardAlpha"/>
<feOffset dx="-4.32035" dy="4.32035"/>
<feGaussianBlur stdDeviation="8.10066"/>
<feComposite in2="hardAlpha" operator="arithmetic" k2="-1" k3="1"/>
<feColorMatrix type="matrix" values="0 0 0 0 0.57448 0 0 0 0 0.486686 0 0 0 0 0.897929 0 0 0 1 0"/>
<feBlend mode="normal" in2="shape" result="effect1_innerShadow_3327_53456"/>
<feColorMatrix in="SourceAlpha" type="matrix" values="0 0 0 0 0 0 0 0 0 0 0 0 0 0 0 0 0 0 127 0" result="hardAlpha"/>
<feOffset dx="4.32035" dy="-6.48053"/>
<feGaussianBlur stdDeviation="5.88648"/>
<feComposite in2="hardAlpha" operator="arithmetic" k2="-1" k3="1"/>
<feColorMatrix type="matrix" values="0 0 0 0 0.73458 0 0 0 0 0.680104 0 0 0 0 0.935281 0 0 0 1 0"/>
<feBlend mode="normal" in2="effect1_innerShadow_3327_53456" result="effect2_innerShadow_3327_53456"/>
<feColorMatrix in="SourceAlpha" type="matrix" values="0 0 0 0 0 0 0 0 0 0 0 0 0 0 0 0 0 0 127 0" result="hardAlpha"/>
<feOffset dx="-1.08009" dy="1.08009"/>
<feGaussianBlur stdDeviation="2.4842"/>
<feComposite in2="hardAlpha" operator="arithmetic" k2="-1" k3="1"/>
<feColorMatrix type="matrix" values="0 0 0 0 0.669383 0 0 0 0 0.610392 0 0 0 0 0.918454 0 0 0 1 0"/>
<feBlend mode="normal" in2="effect2_innerShadow_3327_53456" result="effect3_innerShadow_3327_53456"/>
</filter>
</defs>
</svg>
