<svg width="120" height="100" viewBox="0 0 120 100" fill="none" xmlns="http://www.w3.org/2000/svg">
<rect width="120" height="100" fill="white"/>
<g filter="url(#filter0_i_3327_53558)">
<path d="M46.9072 37.6973C49.449 36.7398 52.5988 37.8768 53.9424 40.2373L74.8945 77.0576C75.1582 77.5211 75.331 77.9975 75.4219 78.4707L75.9619 78.624L75.2725 80.5674C74.8834 81.6634 74.0031 82.5837 72.7246 83.0654L41.2773 94.9121C38.7355 95.8695 35.5856 94.7318 34.2422 92.3711L13.291 55.5518C13.1921 55.378 13.1063 55.2019 13.0322 55.0254L12.4561 53.9561C11.8204 52.7769 11.6732 51.3951 12.0459 50.1084L12.6006 48.1953L14.5293 50.0146C14.8108 49.8301 15.1218 49.6707 15.4609 49.543L46.9072 37.6973Z" fill="#6E52E3"/>
</g>
<g filter="url(#filter1_iii_3327_53558)">
<path d="M13.0047 51.6252C11.6613 49.2644 12.6329 46.5743 15.1748 45.6168L46.6216 33.7705C49.1635 32.8129 52.3132 33.9505 53.6566 36.3113L75.6476 74.9568C76.991 77.3176 76.0194 80.0076 73.4775 80.9652L41.0151 93.1941C39.0341 93.9403 36.5794 93.0538 35.5324 91.2139L13.0047 51.6252Z" fill="#A08DEA"/>
</g>
<rect width="33.9056" height="45.5606" rx="2" transform="matrix(0.935803 -0.352525 0.494576 0.869134 17.1934 49.4688)" fill="white"/>
<path d="M37.7143 50.6237C42.9036 48.9576 49.131 51.325 51.8358 56.078L52.0838 56.5391C54.4988 61.3294 52.4436 66.6362 47.3262 68.5642L46.8273 68.7387C41.8054 70.3506 35.8111 68.1853 32.9784 63.7362L32.7058 63.2844C29.9141 58.3783 31.9336 52.7871 37.2159 50.797L37.7143 50.6237ZM39.5139 54.8354C36.6329 55.921 35.5314 58.9704 37.054 61.6464C38.5769 64.3222 42.1473 65.6117 45.0286 64.5266C47.9097 63.4411 49.0111 60.3916 47.4885 57.7156C45.9657 55.0397 42.3952 53.7502 39.5139 54.8354Z" fill="#E3DEF9"/>
<path d="M37.4892 50.7007L37.6364 50.6494C37.7398 50.6154 37.8444 50.5841 37.949 50.5532C38.2656 50.4595 38.5854 50.3802 38.9081 50.3156C40.4834 50.0022 42.1627 50.0215 43.815 50.3791C43.8427 50.3852 43.8703 50.3921 43.898 50.3983C44.0259 50.4269 44.1535 50.4575 44.281 50.4901C44.7077 50.5994 45.127 50.7313 45.5375 50.8826C46.1581 51.1113 46.7606 51.3873 47.3379 51.7081C48.5203 52.3664 49.5852 53.2063 50.4705 54.1922C50.804 54.5637 51.1063 54.9522 51.3794 55.3526C51.4324 55.4306 51.4857 55.5087 51.5367 55.5881C51.5864 55.6653 51.6332 55.7435 51.6806 55.8215C51.7164 55.8804 51.7525 55.9392 51.7871 55.9989C51.8305 56.0736 51.8719 56.149 51.9133 56.2245L52.0106 56.4053C52.0579 56.4958 52.1038 56.5867 52.1481 56.6782C52.1624 56.7075 52.1766 56.7369 52.1905 56.7663C52.7238 57.8958 53.0305 59.0898 53.0813 60.2897C53.1081 60.9244 53.0603 61.5491 52.9471 62.1563C52.762 63.1429 52.3977 64.0828 51.8657 64.9385C51.7731 65.0872 51.6752 65.2332 51.5724 65.3767C51.3884 65.6343 51.1884 65.8825 50.9728 66.1211L47.0184 63.1952C48.3209 61.7538 48.582 59.6382 47.488 57.7153C45.9651 55.0395 42.3946 53.7501 39.5133 54.8351L39.5124 54.8354L37.2148 50.7979C37.3055 50.7637 37.3974 50.7324 37.4892 50.7007Z" fill="#9D89E8"/>
<rect width="20.4427" height="1.27767" rx="0.638833" transform="matrix(0.935803 -0.352525 0.494576 0.869134 39.416 75.0742)" fill="#E3DEF9"/>
<rect width="20.4427" height="1.27767" rx="0.638833" transform="matrix(0.935803 -0.352525 0.494576 0.869134 40.9961 77.8516)" fill="#E3DEF9"/>
<rect width="20.4427" height="1.27767" rx="0.638833" transform="matrix(0.935803 -0.352525 0.494576 0.869134 42.5742 80.6279)" fill="#E3DEF9"/>
<g filter="url(#filter2_iii_3327_53558)">
<path d="M27.7383 34.1426C31.2927 32.8039 35.6076 34.0938 37.97 37.0301L43.4514 34.9652L46.6106 40.517C47.6575 42.3567 46.9 44.4532 44.9193 45.1996L26.9847 51.9558C25.0036 52.702 22.549 51.8155 21.502 49.9756L18.3428 44.4238L23.8242 42.3589C22.6006 38.9935 24.1839 35.4816 27.7383 34.1426Z" fill="#E0E5F0"/>
</g>
<g filter="url(#filter3_i_3327_53558)">
<circle cx="2.55533" cy="2.55533" r="2.55533" transform="matrix(0.935803 -0.352525 0.494576 0.869134 27.2402 38.375)" fill="white"/>
</g>
<g filter="url(#filter4_iii_3327_53558)">
<path d="M78.1168 7.50228C78.6111 5.98116 80.3083 4.74805 81.9077 4.74805H106.523C108.123 4.74805 109.019 5.98116 108.525 7.50228L97.3382 41.9303C97.0911 42.6908 96.2425 43.3074 95.4428 43.3074H67.931C67.1313 43.3074 66.6834 42.6908 66.9305 41.9302L78.1168 7.50228Z" fill="#A8B4C7"/>
</g>
<g filter="url(#filter5_iii_3327_53558)">
<path d="M78.5624 6.14525C78.8096 5.3745 79.6675 4.74805 80.478 4.74805H107.989C108.778 4.74805 109.227 5.34396 108.986 6.09436C107.868 9.58664 104.726 18.9924 101.884 23.7183C99.5153 27.6579 95.5736 31.3091 93.2356 33.2857C92.0393 34.297 90.5527 34.8221 89.1802 34.8221H62.6285C61.9891 34.8221 61.8826 34.0735 62.4443 33.607C64.7115 31.7243 68.9726 27.8824 71.4763 23.7183C74.3042 19.0152 77.4299 9.67716 78.5624 6.14525Z" fill="#E0E5F0"/>
</g>
<g filter="url(#filter6_iii_3327_53558)">
<path d="M78.7923 5.50618C78.9169 5.09836 79.3727 4.74805 79.8016 4.74805H108.624C109.046 4.74805 109.266 5.08788 109.088 5.48719C108.221 7.43479 105.643 12.8522 102.026 17.1388C98.8513 20.9012 94.4304 23.9157 92.1107 25.3601C91.1025 25.9878 89.9895 26.2883 88.9492 26.2883H62.4296C61.7224 26.2883 61.6808 25.3548 62.3518 24.9034C64.4947 23.4616 67.9508 20.8859 71.6181 17.1388C76.3843 12.2689 78.2296 7.34862 78.7923 5.50618Z" fill="white"/>
</g>
<line x1="81.8945" y1="9.71484" x2="101.134" y2="9.71484" stroke="#C2CCDB" stroke-linecap="round"/>
<line x1="79.3828" y1="13.2588" x2="88.281" y2="13.2588" stroke="#C2CCDB" stroke-linecap="round"/>
<defs>
<filter id="filter0_i_3327_53558" x="11.8438" y="36.4574" width="64.5172" height="58.7945" filterUnits="userSpaceOnUse" color-interpolation-filters="sRGB">
<feFlood flood-opacity="0" result="BackgroundImageFix"/>
<feBlend mode="normal" in="SourceGraphic" in2="BackgroundImageFix" result="shape"/>
<feColorMatrix in="SourceAlpha" type="matrix" values="0 0 0 0 0 0 0 0 0 0 0 0 0 0 0 0 0 0 127 0" result="hardAlpha"/>
<feOffset dx="0.4" dy="-1"/>
<feGaussianBlur stdDeviation="0.45"/>
<feComposite in2="hardAlpha" operator="arithmetic" k2="-1" k3="1"/>
<feColorMatrix type="matrix" values="0 0 0 0 0.517476 0 0 0 0 0.425619 0 0 0 0 0.901304 0 0 0 1 0"/>
<feBlend mode="normal" in2="shape" result="effect1_innerShadow_3327_53558"/>
</filter>
<filter id="filter1_iii_3327_53558" x="12.4004" y="32.0307" width="64.8516" height="62.4283" filterUnits="userSpaceOnUse" color-interpolation-filters="sRGB">
<feFlood flood-opacity="0" result="BackgroundImageFix"/>
<feBlend mode="normal" in="SourceGraphic" in2="BackgroundImageFix" result="shape"/>
<feColorMatrix in="SourceAlpha" type="matrix" values="0 0 0 0 0 0 0 0 0 0 0 0 0 0 0 0 0 0 127 0" result="hardAlpha"/>
<feOffset dx="0.3" dy="-0.4"/>
<feGaussianBlur stdDeviation="0.35"/>
<feComposite in2="hardAlpha" operator="arithmetic" k2="-1" k3="1"/>
<feColorMatrix type="matrix" values="0 0 0 0 0.435294 0 0 0 0 0.329412 0 0 0 0 0.890196 0 0 0 1 0"/>
<feBlend mode="normal" in2="shape" result="effect1_innerShadow_3327_53558"/>
<feColorMatrix in="SourceAlpha" type="matrix" values="0 0 0 0 0 0 0 0 0 0 0 0 0 0 0 0 0 0 127 0" result="hardAlpha"/>
<feOffset dx="1" dy="-2"/>
<feGaussianBlur stdDeviation="0.7"/>
<feComposite in2="hardAlpha" operator="arithmetic" k2="-1" k3="1"/>
<feColorMatrix type="matrix" values="0 0 0 0 1 0 0 0 0 1 0 0 0 0 1 0 0 0 0.1 0"/>
<feBlend mode="normal" in2="effect1_innerShadow_3327_53558" result="effect2_innerShadow_3327_53558"/>
<feColorMatrix in="SourceAlpha" type="matrix" values="0 0 0 0 0 0 0 0 0 0 0 0 0 0 0 0 0 0 127 0" result="hardAlpha"/>
<feOffset dx="1" dy="1"/>
<feGaussianBlur stdDeviation="2"/>
<feComposite in2="hardAlpha" operator="arithmetic" k2="-1" k3="1"/>
<feColorMatrix type="matrix" values="0 0 0 0 0.08 0 0 0 0 0.165714 0 0 0 0 0.32 0 0 0 0.2 0"/>
<feBlend mode="normal" in2="effect2_innerShadow_3327_53558" result="effect3_innerShadow_3327_53558"/>
</filter>
<filter id="filter2_iii_3327_53558" x="18.3438" y="33.0133" width="29.7383" height="23.8074" filterUnits="userSpaceOnUse" color-interpolation-filters="sRGB">
<feFlood flood-opacity="0" result="BackgroundImageFix"/>
<feBlend mode="normal" in="SourceGraphic" in2="BackgroundImageFix" result="shape"/>
<feColorMatrix in="SourceAlpha" type="matrix" values="0 0 0 0 0 0 0 0 0 0 0 0 0 0 0 0 0 0 127 0" result="hardAlpha"/>
<feOffset dx="0.4" dy="-0.6"/>
<feGaussianBlur stdDeviation="0.65"/>
<feComposite in2="hardAlpha" operator="arithmetic" k2="-1" k3="1"/>
<feColorMatrix type="matrix" values="0 0 0 0 0.209689 0 0 0 0 0.251945 0 0 0 0 0.328772 0 0 0 0.2 0"/>
<feBlend mode="normal" in2="shape" result="effect1_innerShadow_3327_53558"/>
<feColorMatrix in="SourceAlpha" type="matrix" values="0 0 0 0 0 0 0 0 0 0 0 0 0 0 0 0 0 0 127 0" result="hardAlpha"/>
<feOffset/>
<feGaussianBlur stdDeviation="0.5"/>
<feComposite in2="hardAlpha" operator="arithmetic" k2="-1" k3="1"/>
<feColorMatrix type="matrix" values="0 0 0 0 1 0 0 0 0 1 0 0 0 0 1 0 0 0 0.25 0"/>
<feBlend mode="normal" in2="effect1_innerShadow_3327_53558" result="effect2_innerShadow_3327_53558"/>
<feColorMatrix in="SourceAlpha" type="matrix" values="0 0 0 0 0 0 0 0 0 0 0 0 0 0 0 0 0 0 127 0" result="hardAlpha"/>
<feOffset dx="1" dy="5"/>
<feGaussianBlur stdDeviation="2.3"/>
<feComposite in2="hardAlpha" operator="arithmetic" k2="-1" k3="1"/>
<feColorMatrix type="matrix" values="0 0 0 0 0.706685 0 0 0 0 0.730601 0 0 0 0 0.774085 0 0 0 0.1 0"/>
<feBlend mode="normal" in2="effect2_innerShadow_3327_53558" result="effect3_innerShadow_3327_53558"/>
</filter>
<filter id="filter3_i_3327_53558" x="28.1895" y="37.2979" width="5.41016" height="4.79492" filterUnits="userSpaceOnUse" color-interpolation-filters="sRGB">
<feFlood flood-opacity="0" result="BackgroundImageFix"/>
<feBlend mode="normal" in="SourceGraphic" in2="BackgroundImageFix" result="shape"/>
<feColorMatrix in="SourceAlpha" type="matrix" values="0 0 0 0 0 0 0 0 0 0 0 0 0 0 0 0 0 0 127 0" result="hardAlpha"/>
<feOffset dy="1"/>
<feComposite in2="hardAlpha" operator="arithmetic" k2="-1" k3="1"/>
<feColorMatrix type="matrix" values="0 0 0 0 0.576478 0 0 0 0 0.618365 0 0 0 0 0.683522 0 0 0 1 0"/>
<feBlend mode="normal" in2="shape" result="effect1_innerShadow_3327_53558"/>
</filter>
<filter id="filter4_iii_3327_53558" x="65.8633" y="2.74805" width="42.7969" height="48.0596" filterUnits="userSpaceOnUse" color-interpolation-filters="sRGB">
<feFlood flood-opacity="0" result="BackgroundImageFix"/>
<feBlend mode="normal" in="SourceGraphic" in2="BackgroundImageFix" result="shape"/>
<feColorMatrix in="SourceAlpha" type="matrix" values="0 0 0 0 0 0 0 0 0 0 0 0 0 0 0 0 0 0 127 0" result="hardAlpha"/>
<feOffset dx="-0.4" dy="-0.4"/>
<feGaussianBlur stdDeviation="0.4"/>
<feComposite in2="hardAlpha" operator="arithmetic" k2="-1" k3="1"/>
<feColorMatrix type="matrix" values="0 0 0 0 0.189534 0 0 0 0 0.225622 0 0 0 0 0.291235 0 0 0 0.3 0"/>
<feBlend mode="normal" in2="shape" result="effect1_innerShadow_3327_53558"/>
<feColorMatrix in="SourceAlpha" type="matrix" values="0 0 0 0 0 0 0 0 0 0 0 0 0 0 0 0 0 0 127 0" result="hardAlpha"/>
<feOffset dx="-1" dy="-2"/>
<feGaussianBlur stdDeviation="1.35"/>
<feComposite in2="hardAlpha" operator="arithmetic" k2="-1" k3="1"/>
<feColorMatrix type="matrix" values="0 0 0 0 1 0 0 0 0 1 0 0 0 0 1 0 0 0 0.1 0"/>
<feBlend mode="normal" in2="effect1_innerShadow_3327_53558" result="effect2_innerShadow_3327_53558"/>
<feColorMatrix in="SourceAlpha" type="matrix" values="0 0 0 0 0 0 0 0 0 0 0 0 0 0 0 0 0 0 127 0" result="hardAlpha"/>
<feOffset dy="25"/>
<feGaussianBlur stdDeviation="3.75"/>
<feComposite in2="hardAlpha" operator="arithmetic" k2="-1" k3="1"/>
<feColorMatrix type="matrix" values="0 0 0 0 0.0784314 0 0 0 0 0.164706 0 0 0 0 0.321569 0 0 0 0.02 0"/>
<feBlend mode="normal" in2="effect2_innerShadow_3327_53558" result="effect3_innerShadow_3327_53558"/>
</filter>
<filter id="filter5_iii_3327_53558" x="55.8215" y="-3.25195" width="53.2293" height="52.7036" filterUnits="userSpaceOnUse" color-interpolation-filters="sRGB">
<feFlood flood-opacity="0" result="BackgroundImageFix"/>
<feBlend mode="normal" in="SourceGraphic" in2="BackgroundImageFix" result="shape"/>
<feColorMatrix in="SourceAlpha" type="matrix" values="0 0 0 0 0 0 0 0 0 0 0 0 0 0 0 0 0 0 127 0" result="hardAlpha"/>
<feOffset dx="-6.25857" dy="21.3615"/>
<feGaussianBlur stdDeviation="7.3147"/>
<feComposite in2="hardAlpha" operator="arithmetic" k2="-1" k3="1"/>
<feColorMatrix type="matrix" values="0 0 0 0 0.0784314 0 0 0 0 0.164706 0 0 0 0 0.321569 0 0 0 0.04 0"/>
<feBlend mode="normal" in2="shape" result="effect1_innerShadow_3327_53558"/>
<feColorMatrix in="SourceAlpha" type="matrix" values="0 0 0 0 0 0 0 0 0 0 0 0 0 0 0 0 0 0 127 0" result="hardAlpha"/>
<feOffset dx="-0.4" dy="-0.4"/>
<feGaussianBlur stdDeviation="0.25"/>
<feComposite in2="hardAlpha" operator="arithmetic" k2="-1" k3="1"/>
<feColorMatrix type="matrix" values="0 0 0 0 0.269138 0 0 0 0 0.320383 0 0 0 0 0.413554 0 0 0 0.3 0"/>
<feBlend mode="normal" in2="effect1_innerShadow_3327_53558" result="effect2_innerShadow_3327_53558"/>
<feColorMatrix in="SourceAlpha" type="matrix" values="0 0 0 0 0 0 0 0 0 0 0 0 0 0 0 0 0 0 127 0" result="hardAlpha"/>
<feOffset dx="-1.12429" dy="-25.8586"/>
<feGaussianBlur stdDeviation="4"/>
<feComposite in2="hardAlpha" operator="arithmetic" k2="-1" k3="1"/>
<feColorMatrix type="matrix" values="0 0 0 0 1 0 0 0 0 1 0 0 0 0 1 0 0 0 0.3 0"/>
<feBlend mode="normal" in2="effect2_innerShadow_3327_53558" result="effect3_innerShadow_3327_53558"/>
</filter>
<filter id="filter6_iii_3327_53558" x="61.573" y="1.61876" width="47.5773" height="29.4693" filterUnits="userSpaceOnUse" color-interpolation-filters="sRGB">
<feFlood flood-opacity="0" result="BackgroundImageFix"/>
<feBlend mode="normal" in="SourceGraphic" in2="BackgroundImageFix" result="shape"/>
<feColorMatrix in="SourceAlpha" type="matrix" values="0 0 0 0 0 0 0 0 0 0 0 0 0 0 0 0 0 0 127 0" result="hardAlpha"/>
<feOffset dx="-0.3" dy="-0.7"/>
<feGaussianBlur stdDeviation="0.3"/>
<feComposite in2="hardAlpha" operator="arithmetic" k2="-1" k3="1"/>
<feColorMatrix type="matrix" values="0 0 0 0 0.22016 0 0 0 0 0.319811 0 0 0 0 0.500994 0 0 0 0.16 0"/>
<feBlend mode="normal" in2="shape" result="effect1_innerShadow_3327_53558"/>
<feColorMatrix in="SourceAlpha" type="matrix" values="0 0 0 0 0 0 0 0 0 0 0 0 0 0 0 0 0 0 127 0" result="hardAlpha"/>
<feOffset dy="-4.69393"/>
<feGaussianBlur stdDeviation="1.56464"/>
<feComposite in2="hardAlpha" operator="arithmetic" k2="-1" k3="1"/>
<feColorMatrix type="matrix" values="0 0 0 0 0.0784314 0 0 0 0 0.164706 0 0 0 0 0.321569 0 0 0 0.01 0"/>
<feBlend mode="normal" in2="effect1_innerShadow_3327_53558" result="effect2_innerShadow_3327_53558"/>
<feColorMatrix in="SourceAlpha" type="matrix" values="0 0 0 0 0 0 0 0 0 0 0 0 0 0 0 0 0 0 127 0" result="hardAlpha"/>
<feOffset dy="7"/>
<feGaussianBlur stdDeviation="2.4"/>
<feComposite in2="hardAlpha" operator="arithmetic" k2="-1" k3="1"/>
<feColorMatrix type="matrix" values="0 0 0 0 0.0784314 0 0 0 0 0.164706 0 0 0 0 0.321569 0 0 0 0.01 0"/>
<feBlend mode="normal" in2="effect2_innerShadow_3327_53558" result="effect3_innerShadow_3327_53558"/>
</filter>
</defs>
</svg>
