<svg width="17" height="16" viewBox="0 0 17 16" fill="none" xmlns="http://www.w3.org/2000/svg">
<path d="M8.06901 14.6654C11.7509 14.6654 14.7357 11.6806 14.7357 7.9987C14.7357 4.3168 11.7509 1.33203 8.06901 1.33203C4.38711 1.33203 1.40234 4.3168 1.40234 7.9987C1.40234 11.6806 4.38711 14.6654 8.06901 14.6654Z" fill="#111111" fill-opacity="0.25"/>
<path d="M9.72653 5.66012C9.91398 5.47267 10.2188 5.47267 10.4062 5.66012C10.5936 5.84757 10.5937 6.15237 10.4062 6.33981L8.74606 7.99996L10.4062 9.66012C10.5936 9.84757 10.5937 10.1524 10.4062 10.3398C10.2188 10.5272 9.91398 10.5272 9.72653 10.3398L8.06637 8.67965L6.40621 10.3398C6.21877 10.5272 5.91398 10.5272 5.72653 10.3398C5.53907 10.1524 5.53907 9.84757 5.72653 9.66012L7.38668 7.99996L5.72653 6.33981C5.53907 6.15236 5.53907 5.84757 5.72653 5.66012C5.91398 5.47267 6.21876 5.47267 6.40621 5.66012L8.06637 7.32028L9.72653 5.66012Z" fill="white"/>
</svg>
