<svg width="57" height="57" viewBox="0 0 57 57" fill="none" xmlns="http://www.w3.org/2000/svg">
<path d="M19.9902 7.73779C25.5765 6.34133 31.4206 6.3413 37.0068 7.73779C38.706 8.16258 39.8983 9.6895 39.8984 11.4409V18.8667H17.0986V11.4409C17.0988 9.6895 18.2911 8.16258 19.9902 7.73779Z" stroke="#DFBEF3" stroke-width="3.6"/>
<path d="M6.89844 32.2878C6.89844 29.6368 9.04747 27.4878 11.6984 27.4878H45.2984C47.9494 27.4878 50.0984 29.6368 50.0984 32.2878V46.6878C50.0984 49.3388 47.9494 51.4878 45.2984 51.4878H11.6984C9.04748 51.4878 6.89844 49.3388 6.89844 46.6878V32.2878Z" fill="#A74DDF"/>
<path d="M4.5 18.2663C4.5 15.6153 6.64903 13.4663 9.3 13.4663H47.7C50.351 13.4663 52.5 15.6153 52.5 18.2663V27.8663C52.5 33.1682 48.2019 37.4663 42.9 37.4663H14.1C8.79807 37.4663 4.5 33.1682 4.5 27.8663V18.2663Z" fill="#DFBEF3"/>
<path d="M24.582 35.9503C24.582 34.6248 25.6565 33.5503 26.982 33.5503H30.0148C31.3403 33.5503 32.4148 34.6248 32.4148 35.9503V38.9831C32.4148 40.3086 31.3403 41.3831 30.0148 41.3831H26.982C25.6565 41.3831 24.582 40.3086 24.582 38.9831V35.9503Z" fill="#F9F2FD"/>
<path d="M22.0469 7.15665V7.15665C26.2641 5.99964 30.7324 6.00277 34.9505 7.15665V7.15665" stroke="#BA74E6" stroke-width="4.6" stroke-linecap="round"/>
</svg>
