<svg width="48" height="48" viewBox="0 0 48 48" fill="none" xmlns="http://www.w3.org/2000/svg">
<path d="M32.4574 24.0879H15.5389C12.6985 24.0879 10.396 26.3904 10.396 29.2307V40.505C10.396 43.3453 12.6985 45.6479 15.5389 45.6479H32.4574C35.2977 45.6479 37.6003 43.3453 37.6003 40.505V29.2307C37.6003 26.3904 35.2977 24.0879 32.4574 24.0879Z" fill="#A74DDF"/>
<path d="M36.2796 19.2549H11.7171C9.8236 19.2549 8.28857 20.7899 8.28857 22.6835V25.4926C8.28857 27.3861 9.8236 28.9211 11.7171 28.9211H36.2796C38.1731 28.9211 39.7082 27.3861 39.7082 25.4926V22.6835C39.7082 20.7899 38.1731 19.2549 36.2796 19.2549Z" fill="#BA74E6"/>
<path d="M23.9981 10.7703C25.2057 5.36061 28.3246 2.51182 36.9047 3.97091C38.0908 4.17289 38.6741 5.56805 38.0741 6.61098C36.0971 10.0469 33.3836 14.29 25.7133 12.8068V19.2547H22.2847V12.8068C14.614 14.2903 11.9002 10.047 9.92309 6.61098C9.32309 5.56795 9.90706 4.17265 11.0933 3.97091C19.6732 2.51194 22.7907 5.3608 23.9981 10.7703Z" fill="#DFBEF3"/>
</svg>
