<svg width="57" height="57" viewBox="0 0 57 57" fill="none" xmlns="http://www.w3.org/2000/svg">
<path d="M38.3672 28.6094H18.6289C15.3152 28.6094 12.6289 31.2957 12.6289 34.6094V47.7627C12.6289 51.0764 15.3152 53.7627 18.6289 53.7627H38.3672C41.6809 53.7627 44.3672 51.0764 44.3672 47.7627V34.6094C44.3672 31.2957 41.6809 28.6094 38.3672 28.6094Z" fill="#62666D"/>
<path d="M42.8261 22.9707H14.1699C11.9608 22.9707 10.1699 24.7616 10.1699 26.9707V30.248C10.1699 32.4571 11.9608 34.248 14.1699 34.248H42.8261C45.0353 34.248 46.8261 32.4571 46.8261 30.248V26.9707C46.8261 24.7616 45.0353 22.9707 42.8261 22.9707Z" fill="#9CA0A6"/>
<path d="M28.4981 13.0703C29.9071 6.7599 33.5464 3.43649 43.5558 5.13864C44.9396 5.37426 45.6201 7.00293 44.92 8.21969C42.6136 12.2282 39.4475 17.1784 30.4991 15.4482V22.9707H26.4991V15.4482C17.5501 17.1789 14.3838 12.2284 12.0772 8.21969C11.3771 7.00281 12.0584 5.374 13.4425 5.13864C23.4514 3.43669 27.0892 6.76014 28.4981 13.0703Z" fill="#CCD0D6"/>
</svg>
