<svg width="48" height="48" viewBox="0 0 48 48" fill="none" xmlns="http://www.w3.org/2000/svg">
<path d="M16.7061 6.1315C21.4943 4.95553 26.5035 4.9555 31.2917 6.1315C32.7482 6.48921 33.7701 7.77503 33.7702 9.24994V15.5032H14.2275V9.24994C14.2277 7.77503 15.2497 6.48921 16.7061 6.1315Z" stroke="#CCD0D6" stroke-width="3.6"/>
<path d="M5.48438 26.8053C5.48438 24.573 7.3264 22.7632 9.59863 22.7632H38.3986C40.6709 22.7632 42.5129 24.573 42.5129 26.8054V38.9317C42.5129 41.164 40.6709 42.9738 38.3986 42.9738H9.59863C7.32641 42.9738 5.48438 41.164 5.48438 38.9317V26.8053Z" fill="#62666D"/>
<path d="M3.42871 14.9977C3.42871 12.7652 5.27074 10.9556 7.543 10.9556H40.4573C42.7296 10.9556 44.5716 12.7652 44.5716 14.9977V23.0819C44.5716 27.5466 40.8875 31.1661 36.343 31.1661H11.6573C7.11277 31.1661 3.42871 27.5466 3.42871 23.0819V14.9977Z" fill="#CCD0D6"/>
<path d="M20.6416 29.8897C20.6416 28.7735 21.5626 27.8687 22.6987 27.8687H25.2983C26.4344 27.8687 27.3554 28.7735 27.3554 29.8897V32.4436C27.3554 33.5598 26.4344 34.4647 25.2983 34.4647H22.6987C21.5626 34.4647 20.6416 33.5598 20.6416 32.4436V29.8897Z" fill="#E2E6EB"/>
<path d="M18.4663 5.83522C22.0811 4.8609 25.911 4.86354 29.5264 5.83522" stroke="#9CA0A6" stroke-width="4.6" stroke-linecap="round"/>
</svg>
