<svg width="24" height="25" viewBox="0 0 24 25" fill="none" xmlns="http://www.w3.org/2000/svg">
<path fill-rule="evenodd" clip-rule="evenodd" d="M11.0801 4.89607C11.4265 4.08857 12.5714 4.08879 12.918 4.89607L14.8399 9.38337C14.941 9.61937 15.1294 9.80755 15.3653 9.90876L19.8526 11.8306C20.6605 12.177 20.6605 13.3222 19.8526 13.6685L15.3653 15.5904C15.1293 15.6916 14.9411 15.8798 14.8399 16.1158L12.918 20.6031L12.8448 20.7447C12.4599 21.364 11.5383 21.364 11.1534 20.7447L11.0801 20.6031L9.15827 16.1158C9.06969 15.9093 8.91437 15.7393 8.71882 15.6324L8.63288 15.5904L4.14558 13.6685C3.3383 13.3219 3.33808 12.177 4.14558 11.8306L8.63288 9.90876C8.86907 9.80761 9.05712 9.61956 9.15827 9.38337L11.0801 4.89607ZM10.5372 9.97419C10.2843 10.5645 9.81401 11.0348 9.2237 11.2877L5.80964 12.7496L9.2237 14.2115C9.81382 14.4643 10.2842 14.9349 10.5372 15.525L11.9991 18.9381L13.461 15.525L13.5655 15.3101C13.833 14.821 14.2579 14.4329 14.7745 14.2115L18.1876 12.7496L14.7745 11.2877C14.1844 11.0347 13.7138 10.5643 13.461 9.97419L11.9991 6.56013L10.5372 9.97419Z" fill="#262A34"/>
</svg>
